<svg width="86" height="84" viewBox="0 0 86 84" fill="none" xmlns="http://www.w3.org/2000/svg">
<g filter="url(#filter0_d_7_62)">
<path d="M43 75.5C64.2503 75.5 81.5 58.7232 81.5 38C81.5 17.2768 64.2503 0.5 43 0.5C21.7497 0.5 4.5 17.2768 4.5 38C4.5 58.7232 21.7497 75.5 43 75.5Z" fill="#C4C4C4" fill-opacity="0.41" stroke="#0D0A9C"/>
<path d="M19.6621 31.1855H16.0234C15.8711 31.1855 15.748 31.1797 15.6543 31.168C15.5723 31.1562 15.4961 31.1211 15.4258 31.0625C15.3672 30.9922 15.3379 30.8984 15.3379 30.7812C15.3379 30.2891 15.6719 29.7676 16.3398 29.2168C17.0078 28.666 17.6816 28.373 18.3613 28.3379C19.123 28.3027 20.1074 28.2852 21.3145 28.2852C21.8066 28.2852 22.252 28.2969 22.6504 28.3203C23.0605 28.3438 23.5469 28.4023 24.1094 28.4961C24.6836 28.5898 25.1875 28.7188 25.6211 28.8828C26.0547 29.0469 26.5 29.2871 26.957 29.6035C27.4258 29.9199 27.8125 30.2949 28.1172 30.7285C28.4219 31.1504 28.6738 31.6895 28.873 32.3457C29.0723 32.9902 29.1719 33.7168 29.1719 34.5254C29.1719 36.2598 28.4629 37.6895 27.0449 38.8145C26.8457 38.9668 26.7461 39.1016 26.7461 39.2188C26.7461 39.3711 26.834 39.4766 27.0098 39.5352C28.5801 40.0508 29.752 40.8184 30.5254 41.8379C31.2988 42.8574 31.6855 44.2402 31.6855 45.9863C31.6855 46.6309 31.5918 47.2754 31.4043 47.9199C31.2285 48.5527 30.9355 49.1797 30.5254 49.8008C30.127 50.4102 29.6348 50.9551 29.0488 51.4355C28.4746 51.9043 27.7539 52.2852 26.8867 52.5781C26.0195 52.8594 25.0645 53 24.0215 53C23.6113 53 23.4062 52.8887 23.4062 52.666C23.4062 52.5137 23.5 52.3906 23.6875 52.2969C25.1406 51.6523 26.2129 50.8262 26.9043 49.8184C27.5957 48.8105 27.9414 47.5566 27.9414 46.0566C27.9414 43.0684 26.4766 41.3398 23.5469 40.8711C23.3594 40.8359 23.2656 40.7363 23.2656 40.5723C23.2656 40.4199 23.4062 40.2441 23.6875 40.0449C24.3086 39.5879 24.8125 38.9961 25.1992 38.2695C25.5859 37.5312 25.7793 36.7168 25.7793 35.8262C25.7793 35.0293 25.6621 34.3438 25.4277 33.7695C25.2051 33.1836 24.9121 32.7324 24.5488 32.416C24.1973 32.0879 23.7344 31.8301 23.1602 31.6426C22.5977 31.4434 22.0527 31.3203 21.5254 31.2734C20.998 31.2148 20.377 31.1855 19.6621 31.1855ZM15.3379 52.2441V33.2949C15.3379 32.873 15.4785 32.5918 15.7598 32.4512C16.0527 32.3105 16.498 32.2402 17.0957 32.2402C17.752 32.2402 18.209 32.3105 18.4668 32.4512C18.7363 32.5801 18.8711 32.8613 18.8711 33.2949V37.4434C18.8711 37.9238 19.1113 38.1641 19.5918 38.1641H22.6855C23.1895 38.1641 23.4414 38.3223 23.4414 38.6387C23.4414 38.7793 23.3125 39.0078 23.0547 39.3242C22.7969 39.6406 22.4805 39.9043 22.1055 40.1152C21.6953 40.3496 20.8574 40.5781 19.5918 40.8008C19.1113 40.8945 18.8711 41.2051 18.8711 41.7324V49.3965C18.8711 49.877 19.1113 50.1172 19.5918 50.1172H23.3711C23.875 50.1172 24.127 50.2637 24.127 50.5566C24.127 50.8027 23.8457 51.1191 23.2832 51.5059C22.7207 51.8926 22.0059 52.2383 21.1387 52.543C20.2832 52.8477 19.498 53 18.7832 53H16.0586C15.5781 53 15.3379 52.748 15.3379 52.2441ZM40.8789 53.5449C39.8945 53.5449 39.0449 53.416 38.3301 53.1582C37.627 52.9121 37.0527 52.502 36.6074 51.9277C36.1621 51.3418 35.834 50.5859 35.623 49.6602C35.4121 48.7344 35.3066 47.5918 35.3066 46.2324V36.6875C35.3066 36.3711 35.3887 36.0781 35.5527 35.8086C35.7285 35.5273 35.9395 35.2871 36.1855 35.0879C36.4434 34.8887 36.7188 34.7363 37.0117 34.6309C37.3164 34.5137 37.5977 34.4551 37.8555 34.4551C38.2656 34.4551 38.4707 34.707 38.4707 35.2109V45.916L38.541 47.2695C38.5879 47.9375 38.6816 48.5117 38.8223 48.9922C38.9629 49.4609 39.1738 49.8477 39.4551 50.1523C39.7363 50.4453 40.0879 50.6621 40.5098 50.8027C40.9434 50.9434 41.4648 51.0137 42.0742 51.0137C43.0469 51.0137 43.9316 50.7852 44.7285 50.3281C44.9512 50.1992 45.0977 50.1348 45.168 50.1348C45.2734 50.1348 45.3438 50.1758 45.3789 50.2578C45.4258 50.3398 45.4492 50.5156 45.4492 50.7852C45.4492 51.2773 45.2793 51.6992 44.9395 52.0508C44.5996 52.3906 44.1895 52.6719 43.709 52.8945C43.2285 53.1172 42.7246 53.2812 42.1973 53.3867C41.6816 53.4922 41.2422 53.5449 40.8789 53.5449ZM49.5098 35.2109V50.9609C49.5098 51.5938 49.2168 52.1211 48.6309 52.543C48.0566 52.9648 47.5 53.1758 46.9609 53.1758C46.5508 53.1758 46.3457 52.9238 46.3457 52.4199V36.6699C46.3457 36.0605 46.6387 35.5391 47.2246 35.1055C47.8105 34.6719 48.3672 34.4551 48.8945 34.4551C49.3047 34.4551 49.5098 34.707 49.5098 35.2109ZM59.2305 53.5449C58.2461 53.5449 57.3965 53.416 56.6816 53.1582C55.9785 52.9121 55.4043 52.502 54.959 51.9277C54.5137 51.3418 54.1855 50.5859 53.9746 49.6602C53.7637 48.7344 53.6582 47.5918 53.6582 46.2324V36.6875C53.6582 36.3711 53.7402 36.0781 53.9043 35.8086C54.0801 35.5273 54.291 35.2871 54.5371 35.0879C54.7949 34.8887 55.0703 34.7363 55.3633 34.6309C55.668 34.5137 55.9492 34.4551 56.207 34.4551C56.6172 34.4551 56.8223 34.707 56.8223 35.2109V45.125L56.875 46.6719C56.8867 47.0117 56.9043 47.2871 56.9277 47.498C56.9512 47.6973 56.9805 47.8789 57.0156 48.043C57.0508 48.207 57.0859 48.3652 57.1211 48.5176C57.168 48.6699 57.2266 48.8633 57.2969 49.0977C57.4961 49.8008 57.877 50.2988 58.4395 50.5918C59.002 50.873 59.7109 51.0137 60.5664 51.0137C61.4453 51.0137 62.2832 50.7852 63.0801 50.3281C63.3027 50.1992 63.4551 50.1348 63.5371 50.1348C63.7129 50.1348 63.8008 50.3516 63.8008 50.7852C63.8008 51.2656 63.6309 51.6816 63.291 52.0332C62.9512 52.373 62.541 52.6543 62.0605 52.877C61.5801 53.0996 61.0762 53.2637 60.5488 53.3691C60.0332 53.4863 59.5938 53.5449 59.2305 53.5449ZM67.8438 35.2109V56.5684C67.8438 57.4473 67.7324 58.2559 67.5098 58.9941C67.2871 59.7441 67.0059 60.3477 66.666 60.8047C66.3379 61.2734 65.9746 61.6719 65.5762 62C65.1777 62.3281 64.8145 62.5566 64.4863 62.6855C64.1699 62.8262 63.8945 62.8965 63.6602 62.8965C63.4727 62.8965 63.3789 62.8145 63.3789 62.6504C63.3789 62.5449 63.4727 62.3633 63.6602 62.1055C64.0586 61.5547 64.3281 60.8574 64.4688 60.0137C64.6211 59.1816 64.6973 58.0566 64.6973 56.6387L64.6621 36.7227C64.6621 36.2656 64.7734 35.9082 64.9961 35.6504C65.3008 35.2988 65.6582 35.0117 66.0684 34.7891C66.4902 34.5664 66.877 34.4551 67.2285 34.4551C67.6387 34.4551 67.8438 34.707 67.8438 35.2109ZM57.5078 60.207C57.9297 60.5234 58.3223 60.7461 58.6855 60.875C59.0488 61.0156 59.4941 61.0859 60.0215 61.0859C60.4902 61.0859 61.0234 61.0215 61.6211 60.8926C62.2305 60.7637 62.5527 60.6992 62.5879 60.6992C62.8926 60.6992 63.0449 60.8457 63.0449 61.1387C63.0449 61.6777 62.5879 62.2227 61.6738 62.7734C60.7598 63.3359 59.7754 63.6172 58.7207 63.6172C57.6895 63.6172 56.7109 63.4004 55.7852 62.9668C54.8711 62.5332 54.4141 62.1055 54.4141 61.6836C54.4141 61.2617 54.6543 60.8633 55.1348 60.4883C55.6855 60.0312 56.1367 59.8027 56.4883 59.8027C56.8398 59.8027 57.1797 59.9375 57.5078 60.207Z" fill="black"/>
</g>
<defs>
<filter id="filter0_d_7_62" x="0" y="0" width="86" height="84" filterUnits="userSpaceOnUse" color-interpolation-filters="sRGB">
<feFlood flood-opacity="0" result="BackgroundImageFix"/>
<feColorMatrix in="SourceAlpha" type="matrix" values="0 0 0 0 0 0 0 0 0 0 0 0 0 0 0 0 0 0 127 0" result="hardAlpha"/>
<feOffset dy="4"/>
<feGaussianBlur stdDeviation="2"/>
<feComposite in2="hardAlpha" operator="out"/>
<feColorMatrix type="matrix" values="0 0 0 0 0 0 0 0 0 0 0 0 0 0 0 0 0 0 0.25 0"/>
<feBlend mode="normal" in2="BackgroundImageFix" result="effect1_dropShadow_7_62"/>
<feBlend mode="normal" in="SourceGraphic" in2="effect1_dropShadow_7_62" result="shape"/>
</filter>
</defs>
</svg>
