<svg width="256" height="58" viewBox="0 0 256 58" fill="none" xmlns="http://www.w3.org/2000/svg">
<path d="M42.4688 2.39062C42.5156 2.625 42.6094 2.83594 42.75 3.02344C42.8906 3.16406 43.0312 3.28125 43.1719 3.375C43.2188 3.75 43.2422 4.14844 43.2422 4.57031C43.2891 4.94531 43.3594 5.32031 43.4531 5.69531C43.4531 5.88281 43.4531 6.09375 43.4531 6.32812C43.4531 6.51562 43.5234 6.67969 43.6641 6.82031C43.5234 8.46094 43.2891 9.82031 42.9609 10.8984C42.6797 11.9297 42.4219 13.0781 42.1875 14.3438C42.1406 14.5781 42.0703 14.8125 41.9766 15.0469C41.9297 15.2344 41.9062 15.4453 41.9062 15.6797C41.8594 15.8672 41.8359 16.0312 41.8359 16.1719C41.8828 16.3125 41.8828 16.4766 41.8359 16.6641C41.7422 16.9453 41.6016 17.25 41.4141 17.5781C41.2266 17.9062 41.0391 18.2578 40.8516 18.6328C40.1016 19.9922 39.2578 21.2812 38.3203 22.5C37.4297 23.7188 36.3047 24.6562 34.9453 25.3125C34.4297 25.5469 33.9844 25.7812 33.6094 26.0156C33.2812 26.2031 32.8594 26.3438 32.3438 26.4375C32.0156 26.625 31.6172 26.8359 31.1484 27.0703C30.7266 27.2578 30.3047 27.3984 29.8828 27.4922C29.6953 27.5859 29.5078 27.6328 29.3203 27.6328C29.1328 27.6328 28.9453 27.6562 28.7578 27.7031C28.5234 27.7969 28.3125 27.8906 28.125 27.9844C27.9844 28.0312 27.8438 28.0781 27.7031 28.125C27.3281 28.2188 27.0469 28.2656 26.8594 28.2656C26.5312 28.2188 26.2969 28.0312 26.1562 27.7031C26.0156 27.3281 25.9453 26.9531 25.9453 26.5781C25.7578 26.3906 25.5469 26.2266 25.3125 26.0859C25.0781 25.9453 24.9141 25.6875 24.8203 25.3125C24.6797 24.7969 24.5859 24.5156 24.5391 24.4688C24.4922 24.4219 24.4453 24.3516 24.3984 24.2578C24.1641 23.6016 24.0703 22.875 24.1172 22.0781C24.2109 21.2344 24.3984 20.5547 24.6797 20.0391C24.7734 19.8047 24.9141 19.6406 25.1016 19.5469C25.2891 19.4062 25.4062 19.2188 25.4531 18.9844C25.8281 18.75 26.1562 18.5156 26.4375 18.2812C26.7188 18 27.0469 17.7422 27.4219 17.5078C27.8906 16.7109 28.4297 16.1016 29.0391 15.6797C29.6484 15.2578 30.2344 14.8125 30.7969 14.3438C30.9844 14.2031 31.125 14.0391 31.2188 13.8516C31.3594 13.6641 31.5469 13.4766 31.7812 13.2891C31.9219 13.1484 32.0859 13.0313 32.2734 12.9375C32.4609 12.7969 32.625 12.6797 32.7656 12.5859C32.8594 12.4922 32.9531 12.3984 33.0469 12.3047C33.1406 12.2109 33.2344 12.1172 33.3281 12.0234C33.5156 11.9297 33.7031 11.8828 33.8906 11.8828C34.0781 11.8828 34.2656 11.8359 34.4531 11.7422C35.1094 11.6484 35.4375 11.6953 35.4375 11.8828C35.4375 12.0234 35.4375 12.1875 35.4375 12.375C35.2031 12.5156 34.9219 12.6562 34.5938 12.7969C34.2656 12.8906 33.9375 12.9844 33.6094 13.0781C33.5156 13.4531 33.3047 13.7344 32.9766 13.9219C32.6953 14.1094 32.4375 14.3672 32.2031 14.6953C32.0156 14.9297 31.8516 15.1641 31.7109 15.3984C31.6172 15.5859 31.4062 15.7266 31.0781 15.8203C30.8438 16.3828 30.5391 16.875 30.1641 17.2969C29.8359 17.6719 29.5078 18.0703 29.1797 18.4922C29.1797 19.0078 29.0625 19.4531 28.8281 19.8281C28.6406 20.1562 28.4297 20.5078 28.1953 20.8828C28.1016 21.0703 28.0078 21.2578 27.9141 21.4453C27.8203 21.6328 27.7734 21.7734 27.7734 21.8672C27.8203 21.9609 27.8672 22.1016 27.9141 22.2891C28.0078 22.4297 28.1016 22.5703 28.1953 22.7109C28.2891 22.8516 28.3828 22.9688 28.4766 23.0625C28.6172 23.1562 28.7109 23.2734 28.7578 23.4141C29.8828 22.7109 30.9844 22.0078 32.0625 21.3047C33.1875 20.6016 34.1484 19.7578 34.9453 18.7734C35.1797 18.3516 35.3906 17.9531 35.5781 17.5781C35.8125 17.1562 36.0469 16.7109 36.2812 16.2422C36.375 15.7734 36.5156 15.3281 36.7031 14.9062C36.8906 14.4844 37.1016 14.0625 37.3359 13.6406C37.5703 13.1719 37.7812 12.7031 37.9688 12.2344C38.1562 11.7656 38.2734 11.2734 38.3203 10.7578C38.3672 10.3828 38.3672 9.98438 38.3203 9.5625C38.3203 9.09375 38.3906 8.74219 38.5312 8.50781C38.4375 8.27344 38.4375 7.96875 38.5312 7.59375C38.625 7.17188 38.6484 6.77344 38.6016 6.39844C38.2734 5.69531 37.9453 5.29688 37.6172 5.20312C37.2891 5.0625 36.9375 4.94531 36.5625 4.85156C36.1875 5.08594 35.7891 5.34375 35.3672 5.625C34.9453 5.90625 34.5469 6.21094 34.1719 6.53906C33.8906 6.82031 33.5859 7.10156 33.2578 7.38281C32.9766 7.66406 32.7422 7.99219 32.5547 8.36719C31.9453 9.02344 31.4531 9.60937 31.0781 10.125C30.7031 10.5937 30.3281 11.0859 29.9531 11.6016C29.1562 12.1172 28.4297 12.6797 27.7734 13.2891C27.1172 13.8984 26.3906 14.4609 25.5938 14.9766C24.9844 15.4453 24.375 15.9375 23.7656 16.4531C23.2031 16.9219 22.6641 17.4141 22.1484 17.9297C21.6797 18.4453 21.1875 18.9375 20.6719 19.4062C20.1562 19.8281 19.6875 20.2969 19.2656 20.8125C18.8906 21.3281 18.4922 21.8672 18.0703 22.4297C17.6484 22.9453 17.2266 23.4609 16.8047 23.9766C16.5703 24.2109 16.3594 24.4688 16.1719 24.75C15.9844 25.0312 15.7734 25.3125 15.5391 25.5938C15.3047 25.8281 15.0703 26.0859 14.8359 26.3672C14.6484 26.6484 14.4609 26.9062 14.2734 27.1406C14.1328 27.375 14.0156 27.6328 13.9219 27.9141C13.8281 28.1484 13.7109 28.3828 13.5703 28.6172C13.1016 29.1797 12.6328 29.7656 12.1641 30.375C11.7422 30.9375 11.3672 31.5938 11.0391 32.3438C10.4766 33.0938 10.0312 33.8438 9.70312 34.5938C9.42188 35.2969 9.09375 36 8.71875 36.7031C8.625 37.3594 8.4375 37.9453 8.15625 38.4609C7.92188 38.9766 7.75781 39.5625 7.66406 40.2188C7.61719 40.5469 7.52344 40.875 7.38281 41.2031C7.28906 41.4844 7.21875 41.8125 7.17188 42.1875C7.07812 42.5156 7.03125 42.8672 7.03125 43.2422C7.03125 43.5703 6.98438 43.875 6.89062 44.1562C6.60938 44.7656 6.46875 45.2109 6.46875 45.4922C6.46875 45.7266 6.35156 45.9141 6.11719 46.0547C6.25781 46.4297 6.375 46.7578 6.46875 47.0391C6.60938 47.3203 6.79688 47.6016 7.03125 47.8828C7.125 48.0703 7.26562 48.2344 7.45312 48.375C7.64062 48.5156 7.78125 48.6797 7.875 48.8672C8.0625 49.3359 8.20312 49.6172 8.29688 49.7109C8.4375 49.8047 8.60156 49.9219 8.78906 50.0625C8.92969 50.1562 9.09375 50.2734 9.28125 50.4141C9.51562 50.5547 9.72656 50.6484 9.91406 50.6953C10.1484 50.7891 10.3828 50.8359 10.6172 50.8359C10.8984 50.7891 11.1562 50.7891 11.3906 50.8359C11.625 50.8359 11.8359 50.8594 12.0234 50.9062C12.2109 50.9062 12.4219 50.8828 12.6562 50.8359C13.0312 50.7422 13.4766 50.6484 13.9922 50.5547C14.5078 50.4141 14.9766 50.2969 15.3984 50.2031C16.0547 50.0156 16.6875 49.8281 17.2969 49.6406C17.9531 49.4531 18.5625 49.2422 19.125 49.0078C19.7344 48.7734 20.2266 48.4453 20.6016 48.0234C20.9766 47.6016 21.3984 47.2734 21.8672 47.0391C22.6172 46.4766 23.1328 46.0312 23.4141 45.7031C23.7422 45.3281 24.0938 45.0234 24.4688 44.7891C24.7969 44.3672 24.9844 44.1562 25.0312 44.1562C25.0781 44.1562 25.125 44.1328 25.1719 44.0859C25.5 43.7109 25.8047 43.3828 26.0859 43.1016C26.4141 42.7734 26.7422 42.4219 27.0703 42.0469C27.5859 41.8125 28.0078 41.5078 28.3359 41.1328C28.7109 40.9922 29.0156 40.8047 29.25 40.5703C29.5312 40.3359 29.8125 40.1016 30.0938 39.8672C30.4688 39.5859 30.7266 39.375 30.8672 39.2344C31.0547 39.0469 31.2188 38.8594 31.3594 38.6719C31.5469 38.4844 31.7344 38.2734 31.9219 38.0391C32.0156 37.9453 32.1562 37.8516 32.3438 37.7578C32.5312 37.6172 32.7188 37.4297 32.9062 37.1953C33 37.0547 33.0938 36.8672 33.1875 36.6328C33.2812 36.3984 33.4453 36.2812 33.6797 36.2812C33.9609 36.2344 34.2656 36.375 34.5938 36.7031C34.9219 36.9844 35.0859 37.2891 35.0859 37.6172C34.6641 38.2734 34.4297 38.6719 34.3828 38.8125C34.0547 39.2812 33.7031 39.7266 33.3281 40.1484C32.9531 40.5703 32.5781 41.0391 32.2031 41.5547C31.8281 41.9766 31.4531 42.4219 31.0781 42.8906C30.7031 43.3125 30.3516 43.7812 30.0234 44.2969C29.6953 44.8125 29.3203 45.2812 28.8984 45.7031C28.5234 46.0781 28.125 46.5 27.7031 46.9688C27.0938 47.625 26.4844 48.2344 25.875 48.7969C25.3125 49.3594 24.7734 50.0391 24.2578 50.8359C24.0234 51.0703 23.7891 51.3047 23.5547 51.5391C23.3203 51.7266 23.0859 51.9375 22.8516 52.1719C22.6172 52.3125 22.3828 52.4766 22.1484 52.6641C21.9609 52.8047 21.75 52.9453 21.5156 53.0859C20.5781 53.4141 19.6172 53.8359 18.6328 54.3516C17.6953 54.9141 16.6406 55.3594 15.4688 55.6875C14.9531 55.8281 14.4141 55.9922 13.8516 56.1797C13.3359 56.3672 12.75 56.4375 12.0938 56.3906C12 56.3438 11.8828 56.3203 11.7422 56.3203C11.6016 56.3203 11.4609 56.2969 11.3203 56.25C11.0391 56.2031 10.7344 56.1094 10.4062 55.9688C10.125 55.8281 9.79688 55.7344 9.42188 55.6875C9.1875 55.6875 8.97656 55.7109 8.78906 55.7578C8.60156 55.8516 8.39062 55.8984 8.15625 55.8984C7.125 55.2422 6.28125 54.6797 5.625 54.2109C5.01562 53.7891 4.45312 53.2734 3.9375 52.6641C3.5625 52.0547 3.30469 51.6797 3.16406 51.5391C3.02344 51.3516 2.85938 51.1406 2.67188 50.9062C2.48438 50.625 2.29688 50.3438 2.10938 50.0625C1.92188 49.7344 1.73438 49.3828 1.54688 49.0078C1.54688 48.8203 1.47656 48.6562 1.33594 48.5156C1.24219 48.375 1.14844 48.2109 1.05469 48.0234C0.820312 47.2266 0.703125 46.4062 0.703125 45.5625C0.703125 44.6719 0.726562 43.8047 0.773438 42.9609C0.820312 42.7266 0.820312 42.5156 0.773438 42.3281C0.726562 42.0938 0.703125 41.8594 0.703125 41.625C0.703125 41.25 0.773438 40.8516 0.914062 40.4297C1.05469 40.0078 1.17188 39.6094 1.26562 39.2344C1.54688 38.2031 1.85156 37.2422 2.17969 36.3516C2.55469 35.4141 2.97656 34.5469 3.44531 33.75C3.86719 33.1875 4.17188 32.6484 4.35938 32.1328C4.59375 31.6172 4.82812 31.0781 5.0625 30.5156C5.29688 30 5.53125 29.5078 5.76562 29.0391C6 28.5234 6.25781 28.0078 6.53906 27.4922C6.77344 27.0234 7.00781 26.5547 7.24219 26.0859C7.52344 25.6172 7.875 25.1953 8.29688 24.8203C8.4375 24.3047 8.64844 23.8828 8.92969 23.5547C9.21094 23.1797 9.49219 22.8047 9.77344 22.4297C10.2422 21.7734 10.7109 21.1641 11.1797 20.6016C11.6953 20.0391 12.1406 19.4062 12.5156 18.7031C12.8906 18.4219 13.2188 18.1172 13.5 17.7891C13.8281 17.4609 14.1328 17.1328 14.4141 16.8047C14.7422 16.4297 15.0469 16.1016 15.3281 15.8203C15.6562 15.4922 15.9844 15.1406 16.3125 14.7656C16.5 14.625 16.6641 14.4844 16.8047 14.3438C16.9922 14.1563 17.1562 13.9922 17.2969 13.8516C17.625 13.4766 17.9531 13.1484 18.2812 12.8672C18.6094 12.5859 18.9609 12.3047 19.3359 12.0234C19.7578 11.8359 20.1562 11.5781 20.5312 11.25C20.9531 10.8281 21.3516 10.4062 21.7266 9.98438C22.1484 9.51563 22.5703 9.09375 22.9922 8.71875C23.6484 8.0625 24.3281 7.42969 25.0312 6.82031C25.7344 6.16406 26.4844 5.57813 27.2812 5.0625C27.75 4.54687 28.3125 4.125 28.9688 3.79688C29.625 3.42187 30.2812 3.07031 30.9375 2.74219C31.3125 2.60156 31.6172 2.48438 31.8516 2.39062C32.1328 2.25 32.4375 2.08594 32.7656 1.89844C33.2812 1.57031 33.6562 1.40625 33.8906 1.40625C34.125 1.35938 34.3125 1.24219 34.4531 1.05469C35.0156 1.05469 35.5078 0.984375 35.9297 0.84375C36.3516 0.65625 36.8203 0.632812 37.3359 0.773438C37.5234 0.820312 37.6875 0.890625 37.8281 0.984375C37.9688 1.03125 38.1094 1.07813 38.25 1.125C39.1406 1.21875 39.7734 1.35938 40.1484 1.54688C40.5234 1.73437 40.875 1.92188 41.2031 2.10938C41.5781 2.25 42 2.34375 42.4688 2.39062ZM72.9844 7.66406C73.2188 8.88281 73.5 9.98438 73.8281 10.9688C74.1562 11.9531 74.3672 13.0313 74.4609 14.2031C74.4609 14.4844 74.4375 14.7656 74.3906 15.0469C74.3906 15.3281 74.4141 15.6094 74.4609 15.8906V16.7344C74.4609 17.1094 74.4141 17.4609 74.3203 17.7891C74.2734 18.1172 74.25 18.4688 74.25 18.8438C74.2031 19.6875 74.0625 20.5078 73.8281 21.3047C73.7812 21.8203 73.7344 22.0781 73.6875 22.0781C73.6406 22.0312 73.6172 22.0547 73.6172 22.1484C73.5234 22.6641 73.4531 23.1562 73.4062 23.625C73.3594 24.0938 73.2891 24.5859 73.1953 25.1016C74.0391 25.1953 75 25.3125 76.0781 25.4531C77.2031 25.5469 78.2578 25.5469 79.2422 25.4531C79.4766 25.4062 79.6875 25.3359 79.875 25.2422C80.1094 25.1484 80.3438 25.0547 80.5781 24.9609C81.375 24.8672 82.0078 24.6797 82.4766 24.3984C82.9453 24.1172 83.5078 23.8828 84.1641 23.6953C83.9766 24.2109 83.7422 24.5156 83.4609 24.6094C83.3203 25.0781 83.1797 25.4062 83.0391 25.5938C82.9453 25.7344 82.8281 25.8516 82.6875 25.9453C82.4531 26.1328 82.2422 26.2969 82.0547 26.4375C81.8672 26.5312 81.6562 26.6719 81.4219 26.8594C80.6719 27.2812 80.0625 27.5156 79.5938 27.5625C79.1719 27.5625 78.7734 27.6328 78.3984 27.7734C78.0703 27.7266 77.6719 27.6797 77.2031 27.6328C76.7812 27.5859 76.4062 27.5859 76.0781 27.6328C75.8438 27.4922 75.5859 27.4219 75.3047 27.4219C75.0234 27.4219 74.7422 27.4688 74.4609 27.5625C73.8984 27.75 73.5234 27.8906 73.3359 27.9844C73.1484 28.0312 72.9609 28.1016 72.7734 28.1953C72.6797 28.4766 72.6094 28.6875 72.5625 28.8281C72.5625 28.9688 72.5391 29.0859 72.4922 29.1797C72.4453 29.6953 72.3984 30.2109 72.3516 30.7266C72.3516 31.1953 72.2812 31.6875 72.1406 32.2031C71.9531 32.625 71.8594 32.9062 71.8594 33.0469C71.8594 33.1406 71.8125 33.2812 71.7188 33.4688C71.5781 33.7031 71.4609 33.9844 71.3672 34.3125C71.2734 34.6406 71.1797 34.9688 71.0859 35.2969C70.8516 35.5312 70.7109 35.8125 70.6641 36.1406C70.6172 36.4688 70.5703 36.8203 70.5234 37.1953C70.4766 37.5703 70.3594 37.9453 70.1719 38.3203C69.9844 38.6484 69.7969 38.9766 69.6094 39.3047C69.5156 39.5391 69.4219 39.7734 69.3281 40.0078C69.2344 40.1953 69.1172 40.4062 68.9766 40.6406C68.4141 41.3438 67.875 42.0938 67.3594 42.8906C67.125 43.4062 66.8672 43.875 66.5859 44.2969C66.3516 44.6719 66.1172 45.0938 65.8828 45.5625C65.5078 46.2188 65.0391 46.8047 64.4766 47.3203C63.9141 47.7891 63.3516 48.2812 62.7891 48.7969C62.5078 49.0312 62.2266 49.2891 61.9453 49.5703C61.6641 49.8516 61.4062 50.1094 61.1719 50.3438C60.9375 50.5781 60.6797 50.8359 60.3984 51.1172C60.1641 51.3516 59.9297 51.5859 59.6953 51.8203C59.3672 52.0547 59.0156 52.3125 58.6406 52.5938C58.3125 52.8281 57.9609 53.0625 57.5859 53.2969C56.8359 53.7188 56.0859 54.1172 55.3359 54.4922C54.6328 54.8672 53.8828 55.2891 53.0859 55.7578C52.7109 55.9922 52.3594 56.2031 52.0312 56.3906C51.7031 56.625 51.3516 56.8125 50.9766 56.9531C50.6953 57.0469 50.3906 57.0938 50.0625 57.0938C49.7812 57.1406 49.5 57.1875 49.2188 57.2344C48.8438 57.3281 48.4922 57.3984 48.1641 57.4453C47.8359 57.5391 47.4609 57.5859 47.0391 57.5859C46.5234 57.5391 45.9375 57.4219 45.2812 57.2344C44.6719 57.0938 44.2031 56.9062 43.875 56.6719C43.2656 56.1094 42.8906 55.7109 42.75 55.4766C42.6562 55.2422 42.4922 55.0078 42.2578 54.7734C42.2109 54.5859 42.1406 54.4453 42.0469 54.3516C42 54.3047 41.9766 54.1875 41.9766 54C41.6484 53.5312 41.3906 53.0625 41.2031 52.5938C40.7812 51.7031 40.4766 50.9297 40.2891 50.2734C40.1484 49.5703 40.125 48.8438 40.2188 48.0938C40.125 47.3438 40.0781 46.5 40.0781 45.5625C40.0781 44.5781 40.0781 43.6406 40.0781 42.75C40.0781 42.4219 40.0547 42.1172 40.0078 41.8359C40.0078 41.5078 40.0547 41.2266 40.1484 40.9922C40.1016 40.6172 40.0547 40.2656 40.0078 39.9375C40.0078 39.5625 40.0547 39.2344 40.1484 38.9531C40.1953 38.4844 40.2188 38.1328 40.2188 37.8984C40.2656 37.6641 40.3359 37.4297 40.4297 37.1953C40.6641 36.9609 40.7578 36.7266 40.7109 36.4922C40.7109 36.2578 40.7578 36.0234 40.8516 35.7891C41.0391 34.5234 41.3438 33.3984 41.7656 32.4141C41.9062 32.0391 42.0469 31.6875 42.1875 31.3594C42.3281 30.9844 42.4453 30.6094 42.5391 30.2344C42.8203 29.4375 43.125 28.7109 43.4531 28.0547C43.8281 27.3984 44.1797 26.6953 44.5078 25.9453C45.1641 24.5859 45.8438 23.3438 46.5469 22.2188C47.2969 21.0469 48.0469 19.8516 48.7969 18.6328C49.0312 18.4922 49.1953 18.3047 49.2891 18.0703C49.3828 17.7891 49.5234 17.5781 49.7109 17.4375C50.0859 16.6406 50.5312 15.9609 51.0469 15.3984C51.5625 14.8359 52.0781 14.2734 52.5938 13.7109C52.8281 13.5234 53.0391 13.3359 53.2266 13.1484C53.4141 12.9141 53.625 12.6797 53.8594 12.4453C54 12.3047 54.1406 12.1875 54.2812 12.0938C54.4688 11.9531 54.6094 11.7891 54.7031 11.6016C54.8906 11.5078 55.0547 11.3906 55.1953 11.25C55.3828 11.1094 55.5469 10.9688 55.6875 10.8281C55.875 10.6875 56.0625 10.5469 56.25 10.4062C56.4375 10.2656 56.625 10.125 56.8125 9.98438C57.1875 9.70312 57.5156 9.42188 57.7969 9.14062C58.125 8.8125 58.4766 8.53125 58.8516 8.29688C59.2266 8.25 59.4609 8.22656 59.5547 8.22656C59.6484 8.22656 59.6953 8.15625 59.6953 8.01562C60.2578 7.54688 60.6094 7.21875 60.75 7.03125C60.9375 6.79687 61.1016 6.5625 61.2422 6.32812C61.6172 6.09375 61.9453 5.83594 62.2266 5.55469C62.5078 5.22656 62.8359 4.94531 63.2109 4.71094C63.4922 4.38281 63.6797 4.17188 63.7734 4.07812C63.9141 3.98437 64.0547 3.89063 64.1953 3.79688C64.2891 3.65625 64.3828 3.5625 64.4766 3.51562C64.6172 3.42187 64.7109 3.32813 64.7578 3.23438C64.9922 3.14062 65.2031 3.04688 65.3906 2.95312C65.5781 2.8125 65.8125 2.69531 66.0938 2.60156C66.4219 2.64844 66.6797 2.64844 66.8672 2.60156C67.1016 2.55469 67.3125 2.55469 67.5 2.60156C67.7812 2.64844 67.9922 2.76563 68.1328 2.95312C68.3203 3.09375 68.5312 3.25781 68.7656 3.44531C69.3281 3.53906 69.75 3.84375 70.0312 4.35938C70.3594 4.82812 70.7109 5.17969 71.0859 5.41406C71.3203 5.78906 71.5781 6.16406 71.8594 6.53906C72.1875 6.86719 72.4688 7.24219 72.7031 7.66406H72.9844ZM67.5 21.0938C67.7344 21.4219 68.0156 21.7266 68.3438 22.0078C68.6719 22.2422 69 22.4766 69.3281 22.7109C69.3281 21.4922 69.375 20.1797 69.4688 18.7734C69.6094 17.3203 69.6328 15.9844 69.5391 14.7656C69.3984 14.25 69.2344 13.7578 69.0469 13.2891C68.9062 12.8203 68.7891 12.3047 68.6953 11.7422C68.5078 11.5547 68.3672 11.3672 68.2734 11.1797C68.2266 10.9922 68.1562 10.8047 68.0625 10.6172C67.8281 10.3359 67.7109 10.1719 67.7109 10.125C67.7109 10.0312 67.6641 9.9375 67.5703 9.84375C67.4766 9.75 67.3594 9.65625 67.2188 9.5625C67.125 9.46875 67.0312 9.35156 66.9375 9.21094C66.375 9.16406 65.9062 9.28125 65.5312 9.5625C65.2031 9.79688 64.875 10.0312 64.5469 10.2656C64.4531 10.9219 64.4297 11.5312 64.4766 12.0938C64.5234 12.6562 64.5938 13.1953 64.6875 13.7109C64.8281 14.6016 64.9688 15.4922 65.1094 16.3828C65.25 17.2734 65.4844 18.0469 65.8125 18.7031C65.8594 19.0312 66.0469 19.4297 66.375 19.8984C66.7031 20.3203 67.0781 20.7188 67.5 21.0938ZM58.0781 14.9766C57.8438 15.2109 57.6094 15.4219 57.375 15.6094C57.1406 15.7969 56.9297 16.0312 56.7422 16.3125C56.4609 16.5469 56.2266 16.7812 56.0391 17.0156C55.8516 17.25 55.6406 17.4844 55.4062 17.7188C55.1719 17.9531 54.9609 18.1875 54.7734 18.4219C54.5859 18.6094 54.3984 18.8438 54.2109 19.125C54.0703 19.2188 53.9531 19.3359 53.8594 19.4766C53.7656 19.6172 53.6484 19.7578 53.5078 19.8984C53.0391 20.5078 52.7109 20.9297 52.5234 21.1641C52.3359 21.3984 52.1953 21.6328 52.1016 21.8672C51.8203 22.0547 51.5859 22.3125 51.3984 22.6406C51.2578 22.9219 51.1172 23.2266 50.9766 23.5547C50.6953 23.9297 50.4375 24.3281 50.2031 24.75C49.9688 25.1719 49.7578 25.5938 49.5703 26.0156C49.1953 26.6719 48.9609 27.1172 48.8672 27.3516C48.8203 27.5859 48.75 27.8203 48.6562 28.0547C48.4688 28.3359 48.3047 28.7109 48.1641 29.1797C47.3672 30.8672 46.6641 32.7891 46.0547 34.9453C45.9609 35.3672 45.8203 35.7656 45.6328 36.1406C45.4922 36.5156 45.3984 36.8906 45.3516 37.2656C45.3047 37.4531 45.2812 37.6406 45.2812 37.8281C45.3281 38.0156 45.3516 38.2031 45.3516 38.3906C45.3047 38.8594 45.2578 39.3281 45.2109 39.7969C45.1641 40.2188 45.1406 40.6875 45.1406 41.2031C45.1406 42.1406 45.1406 43.0078 45.1406 43.8047C45.1406 44.6016 45.1875 45.4219 45.2812 46.2656C45.2812 46.875 45.3281 47.3672 45.4219 47.7422C45.5156 47.9297 45.6797 48.1172 45.9141 48.3047C46.1484 48.4922 46.3594 48.6562 46.5469 48.7969C46.9219 49.1719 47.2969 49.5703 47.6719 49.9922C48.0469 50.3672 48.5625 50.4375 49.2188 50.2031C49.4531 50.3438 49.7109 50.3438 49.9922 50.2031C50.2734 50.0625 50.5547 50.0391 50.8359 50.1328C51.0703 50.0391 51.3047 49.9922 51.5391 49.9922C51.7734 49.9453 52.0078 49.875 52.2422 49.7812C52.6172 49.6875 52.9688 49.5938 53.2969 49.5C53.6719 49.3594 54.0234 49.2422 54.3516 49.1484C54.7266 49.0078 55.1016 48.8906 55.4766 48.7969C55.8516 48.6562 56.2031 48.4922 56.5312 48.3047C57.4688 47.5078 58.1484 46.875 58.5703 46.4062C58.8984 46.0781 59.2266 45.7969 59.5547 45.5625C59.8828 45.2812 60.1875 45 60.4688 44.7188C60.7031 44.4844 60.9375 44.25 61.1719 44.0156C61.4062 43.7344 61.6172 43.4062 61.8047 43.0312C61.9453 42.8906 62.0625 42.75 62.1562 42.6094C62.2969 42.4219 62.4141 42.2344 62.5078 42.0469C62.7422 41.7656 62.9062 41.4609 63 41.1328C63.1406 40.8047 63.3281 40.4766 63.5625 40.1484C63.8438 39.3516 64.1719 38.6016 64.5469 37.8984C64.9219 37.1953 65.2266 36.4688 65.4609 35.7188C65.8828 34.8281 66.2344 34.0547 66.5156 33.3984C66.8438 32.6953 67.0781 31.9922 67.2188 31.2891C67.3594 31.1484 67.4297 30.9844 67.4297 30.7969C67.4766 30.5625 67.5469 30.375 67.6406 30.2344C67.875 29.5781 68.0625 28.9453 68.2031 28.3359C68.3906 27.7266 68.5781 27.0469 68.7656 26.2969C68.5781 26.2031 68.4141 26.1797 68.2734 26.2266C68.1328 26.2266 67.9922 26.1797 67.8516 26.0859C67.4766 25.9453 67.125 25.7109 66.7969 25.3828C66.5156 25.0078 66.1875 24.7969 65.8125 24.75C65.625 24.6094 65.4609 24.4922 65.3203 24.3984C65.2266 24.3047 65.0859 24.2109 64.8984 24.1172C64.1484 23.3203 63.4219 22.5 62.7188 21.6562C62.0625 20.7656 61.5234 19.7812 61.1016 18.7031C60.6797 17.7656 60.3516 16.8984 60.1172 16.1016C59.8828 15.2578 59.6719 14.3672 59.4844 13.4297C59.2031 13.7109 58.9453 13.9687 58.7109 14.2031C58.5234 14.4375 58.3125 14.6953 58.0781 14.9766ZM89.7891 12.0938C90.0234 11.7187 90.1641 11.3906 90.2109 11.1094C90.2578 10.7813 90.3984 10.4297 90.6328 10.0547C91.5703 9.53906 92.4141 8.92969 93.1641 8.22656C93.9141 7.47656 94.7812 6.86719 95.7656 6.39844C96.4219 5.92969 96.9375 5.625 97.3125 5.48438C97.7344 5.29688 98.1328 5.0625 98.5078 4.78125C98.9297 4.59375 99.3281 4.40625 99.7031 4.21875C100.125 4.03125 100.594 3.86719 101.109 3.72656C101.484 3.63281 101.812 3.51562 102.094 3.375C102.375 3.1875 102.656 3.04688 102.938 2.95312C103.594 2.71875 104.25 2.50781 104.906 2.32031C105.562 2.13281 106.195 1.94531 106.805 1.75781C107.039 1.66406 107.32 1.54688 107.648 1.40625C107.977 1.26562 108.281 1.21875 108.562 1.26562C109.078 1.35938 109.383 1.38281 109.477 1.33594C109.617 1.28906 109.734 1.26562 109.828 1.26562C110.203 1.21875 110.508 1.26562 110.742 1.40625C111.023 1.54688 111.328 1.66406 111.656 1.75781C111.938 1.85156 112.195 1.92188 112.43 1.96875C112.711 2.01562 112.969 2.08594 113.203 2.17969C113.438 2.27344 113.625 2.41406 113.766 2.60156C113.953 2.74219 114.117 2.88281 114.258 3.02344C114.445 3.11719 114.609 3.23438 114.75 3.375C114.938 3.51562 115.125 3.65625 115.312 3.79688C115.688 4.59375 116.109 5.39062 116.578 6.1875C117.047 6.98438 117.281 7.94531 117.281 9.07031C117 9.49219 116.836 9.70312 116.789 9.70312C116.742 9.70312 116.695 9.75 116.648 9.84375C116.133 10.1719 115.758 10.4766 115.523 10.7578C115.289 10.9922 115.031 11.25 114.75 11.5312L113.766 12.5156C113.625 12.6094 113.461 12.7031 113.273 12.7969C113.086 12.8437 112.969 12.9844 112.922 13.2188C112.547 13.4062 112.242 13.6406 112.008 13.9219C111.773 14.2031 111.469 14.4141 111.094 14.5547C110.672 15.0703 110.156 15.4922 109.547 15.8203C108.938 16.1016 108.375 16.4297 107.859 16.8047C107.344 17.1328 106.992 17.3437 106.805 17.4375C106.664 17.5313 106.523 17.6484 106.383 17.7891C105.867 18.0234 105.398 18.2578 104.977 18.4922C104.602 18.7266 104.156 18.9375 103.641 19.125C103.406 19.2188 103.172 19.3359 102.938 19.4766C102.75 19.6172 102.492 19.6641 102.164 19.6172C101.93 19.5234 101.695 19.4297 101.461 19.3359C101.227 19.1953 101.016 19.2891 100.828 19.6172C100.219 19.7109 99.6328 19.6172 99.0703 19.3359C98.5547 19.0078 98.2734 18.5625 98.2266 18C97.6641 17.5313 97.5 16.8984 97.7344 16.1016C97.8281 15.7266 97.9922 15.3516 98.2266 14.9766C98.5078 14.6016 98.7422 14.25 98.9297 13.9219C99.1641 13.5 99.375 13.1016 99.5625 12.7266C99.75 12.3047 99.9609 11.9063 100.195 11.5312C100.852 10.8281 101.508 10.1719 102.164 9.5625C102.867 8.95313 103.734 8.53125 104.766 8.29688C105.094 8.20312 105.422 8.10938 105.75 8.01562C106.078 7.92187 106.383 7.82813 106.664 7.73438C106.805 7.82813 106.945 7.82813 107.086 7.73438C107.227 7.64062 107.367 7.64062 107.508 7.73438C107.695 7.875 107.766 8.03906 107.719 8.22656C107.672 8.41406 107.648 8.625 107.648 8.85938C107.508 9.04687 107.32 9.1875 107.086 9.28125C106.852 9.32812 106.617 9.39844 106.383 9.49219C106.195 9.53906 106.008 9.63281 105.82 9.77344C105.633 9.86719 105.516 10.0547 105.469 10.3359C104.156 11.4609 102.984 12.8672 101.953 14.5547C102.094 14.6484 102.281 14.7656 102.516 14.9062C102.75 15.0469 102.984 15.1406 103.219 15.1875C103.594 15.2813 104.016 15.1875 104.484 14.9062C105 14.625 105.398 14.4141 105.68 14.2734C106.992 13.6641 108.164 12.8437 109.195 11.8125C109.477 11.5781 109.758 11.3203 110.039 11.0391C110.367 10.7578 110.602 10.4766 110.742 10.1953C110.93 9.96094 111.094 9.72656 111.234 9.49219C111.375 9.25781 111.562 9.07031 111.797 8.92969C111.844 8.50781 111.773 8.17969 111.586 7.94531C111.445 7.66406 111.258 7.40625 111.023 7.17188C110.836 6.89062 110.625 6.63281 110.391 6.39844C110.156 6.16406 109.992 5.88281 109.898 5.55469C109.664 5.46094 109.453 5.29688 109.266 5.0625C109.125 4.82812 108.938 4.66406 108.703 4.57031C108.609 4.57031 108.398 4.54687 108.07 4.5C107.789 4.45313 107.625 4.42969 107.578 4.42969C106.406 4.66406 105.492 4.92188 104.836 5.20312C104.18 5.48438 103.523 5.76562 102.867 6.04688C101.273 6.89062 99.7969 7.875 98.4375 9C98.2969 9.09375 98.1328 9.1875 97.9453 9.28125C97.7578 9.375 97.6172 9.46875 97.5234 9.5625C97.2891 9.75 97.0781 9.98438 96.8906 10.2656C96.75 10.5469 96.5625 10.8281 96.3281 11.1094C96.0938 11.4375 95.8359 11.7656 95.5547 12.0938C95.3203 12.375 95.1562 12.7031 95.0625 13.0781C94.7812 13.2188 94.5938 13.5 94.5 13.9219C94.4062 14.2969 94.2422 14.6016 94.0078 14.8359C93.9141 15.2109 93.7969 15.5625 93.6562 15.8906C93.5156 16.1719 93.3984 16.5234 93.3047 16.9453C93.7266 17.7891 94.0312 18.4453 94.2188 18.9141C94.4531 19.3828 94.6875 19.8516 94.9219 20.3203C94.9688 20.8359 95.1094 21.3047 95.3438 21.7266C95.625 22.1016 95.8828 22.5469 96.1172 23.0625C96.7734 24.1406 97.3594 25.2891 97.875 26.5078C98.4375 27.6797 99.0469 28.8047 99.7031 29.8828C99.9844 30.5391 100.242 31.1953 100.477 31.8516C100.758 32.4609 101.156 33 101.672 33.4688C101.766 33.7969 101.883 34.125 102.023 34.4531C102.211 34.7344 102.375 35.0391 102.516 35.3672C102.703 35.9297 102.961 36.5391 103.289 37.1953C103.43 37.5703 103.594 37.8984 103.781 38.1797C103.969 38.4609 104.109 38.7422 104.203 39.0234C104.391 39.4453 104.531 39.9844 104.625 40.6406C104.766 41.25 104.812 41.7656 104.766 42.1875C104.766 42.6562 104.742 42.9844 104.695 43.1719C104.648 43.3594 104.578 43.5234 104.484 43.6641C104.391 43.7578 104.297 43.875 104.203 44.0156C104.109 44.1562 104.016 44.4375 103.922 44.8594C103.5 45.6094 103.008 46.2891 102.445 46.8984C101.883 47.5078 101.391 48.2109 100.969 49.0078C100.688 49.3828 100.383 49.7109 100.055 49.9922C99.7266 50.2734 99.3984 50.5547 99.0703 50.8359C98.7422 51.0703 98.3906 51.2812 98.0156 51.4688C97.6875 51.6562 97.3828 51.8906 97.1016 52.1719C96.3047 52.875 95.4609 53.3906 94.5703 53.7188C93.7266 54 92.9297 54.3984 92.1797 54.9141C91.8984 54.9141 91.6172 54.9375 91.3359 54.9844C91.0547 55.0781 90.7734 55.1719 90.4922 55.2656C90.2578 55.3594 90 55.4531 89.7188 55.5469C89.4844 55.6406 89.2266 55.7344 88.9453 55.8281C88.7109 55.9219 88.5 56.0156 88.3125 56.1094C88.1719 56.2031 87.9844 56.2969 87.75 56.3906C87.0938 56.5312 86.3906 56.6016 85.6406 56.6016C84.8906 56.6484 84.1172 56.5781 83.3203 56.3906C82.4297 56.0625 81.7266 55.9219 81.2109 55.9688C80.7422 56.0156 80.3203 55.8281 79.9453 55.4062C79.7109 55.3125 79.5703 55.1953 79.5234 55.0547C79.5234 54.9141 79.4297 54.7734 79.2422 54.6328C78.7266 54.2109 78.3984 53.9531 78.2578 53.8594C78.1172 53.7656 77.9766 53.6484 77.8359 53.5078C77.1328 52.9453 76.5703 52.2891 76.1484 51.5391C76.0078 51.3047 75.8672 51.0703 75.7266 50.8359C75.5859 50.6016 75.4922 50.3906 75.4453 50.2031C75.3516 49.9219 75.3516 49.6406 75.4453 49.3594C75.4922 49.0312 75.4219 48.7266 75.2344 48.4453C75.2812 48.1172 75.2812 47.7656 75.2344 47.3906C75.1875 47.0156 75.1641 46.6875 75.1641 46.4062C75.1641 45.9844 75.2344 45.5625 75.375 45.1406C75.4688 44.7188 75.4453 44.3906 75.3047 44.1562C75.3984 43.5469 75.5391 43.1016 75.7266 42.8203C75.9141 42.4922 76.1484 42.1406 76.4297 41.7656C77.2266 41.3906 77.8828 41.0625 78.3984 40.7812C78.9609 40.4531 79.5234 40.1484 80.0859 39.8672C80.3203 39.7734 80.5078 39.6797 80.6484 39.5859C80.8359 39.4922 81.0234 39.3984 81.2109 39.3047C81.6328 39.0703 82.0781 38.8828 82.5469 38.7422C83.0156 38.6016 83.5078 38.4141 84.0234 38.1797C84.4453 37.9453 84.8672 37.7344 85.2891 37.5469C85.7578 37.3594 86.2031 37.1484 86.625 36.9141C86.9062 36.9141 87.1641 36.8438 87.3984 36.7031C87.6797 36.5625 87.9844 36.4922 88.3125 36.4922C88.4062 36.4922 88.5234 36.5156 88.6641 36.5625C88.8047 36.5625 88.9453 36.5625 89.0859 36.5625C89.3203 36.5625 89.5781 36.5625 89.8594 36.5625C90.1406 36.5625 90.3984 36.6094 90.6328 36.7031C90.8672 36.7969 91.0781 36.9375 91.2656 37.125C91.4531 37.3125 91.7109 37.4062 92.0391 37.4062C92.3672 37.7344 92.625 38.1094 92.8125 38.5312C93.0469 38.9062 93.2344 39.3047 93.375 39.7266C93.4688 39.9609 93.5391 40.2891 93.5859 40.7109C93.6797 41.1328 93.7266 41.4844 93.7266 41.7656C93.6797 42.4688 93.4219 43.0078 92.9531 43.3828C92.5312 43.7578 92.1328 44.2031 91.7578 44.7188C91.1016 44.9531 90.375 45.3516 89.5781 45.9141C89.1094 45.8672 88.6875 45.9609 88.3125 46.1953C87.9375 46.3828 87.4922 46.5469 86.9766 46.6875C86.7422 46.7344 86.4844 46.7344 86.2031 46.6875C85.9219 46.6406 85.6641 46.6641 85.4297 46.7578C85.1953 46.8047 84.9609 46.8984 84.7266 47.0391C84.4922 47.1797 84.2578 47.2031 84.0234 47.1094C83.7891 47.0156 83.6016 46.8281 83.4609 46.5469C83.3672 46.2656 83.3672 45.9844 83.4609 45.7031C83.7422 45.2344 84.1406 44.9531 84.6562 44.8594C85.2188 44.7188 85.7578 44.5078 86.2734 44.2266C86.7422 43.9922 87.1406 43.6875 87.4688 43.3125C87.8438 42.9375 88.2188 42.5625 88.5938 42.1875C88.8281 41.9062 89.1094 41.625 89.4375 41.3438C89.7656 41.0625 89.8359 40.6875 89.6484 40.2188C89.2266 39.8906 88.7344 39.7969 88.1719 39.9375C87.6562 40.0781 87.1875 40.2422 86.7656 40.4297C85.9219 40.8047 85.0781 41.2031 84.2344 41.625C83.4375 42.0469 82.6406 42.4453 81.8438 42.8203C81.4688 42.9609 81.1875 43.125 81 43.3125C80.9062 43.4531 80.8359 43.6406 80.7891 43.875C80.7422 44.1094 80.6719 44.3203 80.5781 44.5078C80.25 45.2109 80.1562 45.9141 80.2969 46.6172C80.3906 46.8516 80.5078 47.0859 80.6484 47.3203C80.7891 47.5078 80.8594 47.7188 80.8594 47.9531C81.0469 48.1406 81.2109 48.3281 81.3516 48.5156C81.4922 48.6562 81.6328 48.8203 81.7734 49.0078C81.9141 49.1016 82.0312 49.1719 82.125 49.2188C82.2188 49.2188 82.3594 49.2422 82.5469 49.2891C83.0156 49.5703 83.5781 49.8281 84.2344 50.0625C84.5156 50.1562 84.9375 50.2969 85.5 50.4844C86.1094 50.6719 86.5312 50.7656 86.7656 50.7656C87 50.8125 87.3047 50.7656 87.6797 50.625C88.0547 50.4844 88.3828 50.3672 88.6641 50.2734C89.7422 49.7578 90.8438 49.2188 91.9688 48.6562C93.0938 48.0938 94.1953 47.5547 95.2734 47.0391C95.6484 46.8047 96 46.5469 96.3281 46.2656C96.6562 45.9375 96.9375 45.5859 97.1719 45.2109C97.5938 44.6953 97.9453 44.0625 98.2266 43.3125C98.5078 42.5625 98.7188 41.7891 98.8594 40.9922C98.9062 40.8047 98.9297 40.6406 98.9297 40.5C98.9297 40.3125 98.9297 40.1484 98.9297 40.0078C98.6484 39.4922 98.5078 39.1875 98.5078 39.0938C98.5547 38.9531 98.5312 38.8359 98.4375 38.7422C98.1094 38.1797 97.8984 37.8047 97.8047 37.6172C97.7578 37.3828 97.6875 37.1719 97.5938 36.9844C97.2656 36.4688 96.8672 36.0234 96.3984 35.6484C95.9297 35.2734 95.625 34.7109 95.4844 33.9609C95.2031 33.7266 94.9922 33.4219 94.8516 33.0469C94.7578 32.6719 94.5234 32.4375 94.1484 32.3438C94.0547 32.1094 93.9609 31.9219 93.8672 31.7812C93.8203 31.5938 93.75 31.3594 93.6562 31.0781C93.375 30.75 93.1641 30.3984 93.0234 30.0234C92.7422 29.7891 92.5078 29.5312 92.3203 29.25C92.1328 28.9688 91.9219 28.6641 91.6875 28.3359C91.3125 27.9609 91.0547 27.6797 90.9141 27.4922C90.7266 27.2578 90.5625 27 90.4219 26.7188C90.3281 26.4375 90.1641 26.1797 89.9297 25.9453C89.7891 25.7109 89.6016 25.5 89.3672 25.3125C89.1797 25.125 89.0391 24.8906 88.9453 24.6094C88.5703 24.1875 88.2656 23.7188 88.0312 23.2031C87.7969 22.6406 87.6094 22.0312 87.4688 21.375C87.5625 20.8125 87.4688 20.3203 87.1875 19.8984C86.9062 19.4766 86.8359 18.9375 86.9766 18.2812C87.2109 17.625 87.4688 16.9688 87.75 16.3125C88.0312 15.6562 88.2656 15.0469 88.4531 14.4844C88.6875 14.3906 88.8281 14.2266 88.875 13.9922C88.9219 13.7109 88.9922 13.4531 89.0859 13.2188L89.7891 12.0938ZM110.742 56.8125C110.836 56.2969 110.977 55.8516 111.164 55.4766C111.398 55.1016 111.562 54.7031 111.656 54.2812C112.078 53.2969 112.547 52.4297 113.062 51.6797C113.156 51.3047 113.273 50.9766 113.414 50.6953C113.602 50.4141 113.789 50.1562 113.977 49.9219C114.258 49.2656 114.469 48.6562 114.609 48.0938C114.797 47.4844 115.055 46.875 115.383 46.2656C115.945 45.1875 116.508 44.0859 117.07 42.9609C117.68 41.7891 118.266 40.6406 118.828 39.5156C119.109 39 119.367 38.4844 119.602 37.9688C119.883 37.4062 120.188 36.8672 120.516 36.3516C120.609 35.9766 120.703 35.6016 120.797 35.2266C120.891 34.8516 121.008 34.4766 121.148 34.1016C121.102 33.8203 121.125 33.6094 121.219 33.4688C121.312 33.2812 121.406 33.0938 121.5 32.9062L121.711 32.0625C121.852 31.5469 122.039 31.1016 122.273 30.7266C122.508 30.3047 122.695 29.8594 122.836 29.3906C122.977 29.2969 123.094 29.1562 123.188 28.9688C123.281 28.7812 123.375 28.5938 123.469 28.4062C123.844 27.375 124.219 26.3672 124.594 25.3828C124.969 24.3984 125.344 23.3672 125.719 22.2891C125.953 21.6797 126.164 21.2344 126.352 20.9531C126.539 20.625 126.68 20.2266 126.773 19.7578C127.242 18.6797 127.711 17.625 128.18 16.5938C128.648 15.5156 129.141 14.4375 129.656 13.3594C129.984 12.5625 130.312 11.8594 130.641 11.25C130.828 10.875 131.039 10.5234 131.273 10.1953C131.508 9.82031 131.672 9.46875 131.766 9.14062C131.859 8.85938 131.859 8.55469 131.766 8.22656C131.25 8.27344 130.781 8.4375 130.359 8.71875C129.984 9 129.539 9.28125 129.023 9.5625C128.789 9.70312 128.531 9.86719 128.25 10.0547C128.062 10.2891 127.922 10.4297 127.828 10.4766C127.781 10.4766 127.711 10.5234 127.617 10.6172C127.195 10.8516 126.75 11.1562 126.281 11.5312C125.859 11.8594 125.414 12.1406 124.945 12.375C124.523 12.75 124.078 13.1484 123.609 13.5703C123.141 13.9453 122.695 14.3203 122.273 14.6953C122.086 15.0234 121.781 15.3047 121.359 15.5391C121.125 15.7734 120.891 16.0312 120.656 16.3125C120.469 16.5938 120.258 16.8516 120.023 17.0859C119.977 17.6953 119.836 18.2812 119.602 18.8438C119.367 19.3594 119.133 19.875 118.898 20.3906C118.805 20.625 118.734 20.8125 118.688 20.9531C118.641 21.0938 118.594 21.2578 118.547 21.4453C118.734 21.5391 118.898 21.5156 119.039 21.375C119.227 21.1875 119.414 21.1172 119.602 21.1641C120.258 20.8828 120.82 20.5312 121.289 20.1094C121.758 19.6875 122.25 19.2891 122.766 18.9141C123.234 18.5391 123.656 18.1172 124.031 17.6484C124.453 17.1328 124.852 16.6172 125.227 16.1016C125.648 15.6797 125.906 15.4219 126 15.3281C126.094 15.1875 126.258 15.1172 126.492 15.1172C126.727 15.3516 126.844 15.5156 126.844 15.6094C126.891 15.7031 126.891 15.7969 126.844 15.8906C126.375 17.0156 125.93 17.9062 125.508 18.5625C125.086 19.1719 124.688 19.8281 124.312 20.5312C123.797 21.0469 123.422 21.5391 123.188 22.0078C122.953 22.4297 122.672 22.8281 122.344 23.2031C122.109 23.625 121.875 24.0469 121.641 24.4688C121.406 24.8438 121.102 25.1484 120.727 25.3828C119.883 25.5703 119.227 25.5703 118.758 25.3828C118.336 25.1484 117.961 24.9609 117.633 24.8203C117.445 24.7266 117.258 24.6797 117.07 24.6797C116.883 24.6328 116.695 24.5391 116.508 24.3984C116.273 24.1172 116.109 23.9297 116.016 23.8359C115.922 23.6953 115.898 23.5312 115.945 23.3438C115.852 23.25 115.758 23.0625 115.664 22.7812C115.57 22.4531 115.523 22.1719 115.523 21.9375C115.711 21.4688 115.781 21.2109 115.734 21.1641C115.734 21.0703 115.758 20.9766 115.805 20.8828C115.852 20.7422 115.898 20.6016 115.945 20.4609C116.039 20.3203 116.109 20.1797 116.156 20.0391C116.25 19.8516 116.297 19.6641 116.297 19.4766C116.344 19.2422 116.414 19.0078 116.508 18.7734C116.648 18.3516 116.906 17.8828 117.281 17.3672C117.375 17.1328 117.469 16.875 117.562 16.5938C117.703 16.3125 117.82 16.0547 117.914 15.8203L118.266 14.9766C118.359 14.6016 118.406 14.4141 118.406 14.4141C118.453 14.3672 118.5 14.2969 118.547 14.2031C118.734 13.6406 118.875 13.2656 118.969 13.0781C119.109 12.8906 119.18 12.6797 119.18 12.4453C120.352 10.7109 121.805 9.23438 123.539 8.01562C124.195 7.5 124.875 6.98438 125.578 6.46875C126.328 5.95312 127.078 5.46094 127.828 4.99219C128.203 4.61719 128.648 4.26562 129.164 3.9375C129.68 3.5625 130.195 3.21094 130.711 2.88281C131.086 2.69531 131.438 2.48438 131.766 2.25C132.141 1.96875 132.539 1.78125 132.961 1.6875C133.289 1.59375 133.594 1.61719 133.875 1.75781C134.344 2.03906 134.648 2.17969 134.789 2.17969C134.93 2.13281 135.047 2.13281 135.141 2.17969C135.422 2.27344 135.656 2.48438 135.844 2.8125C136.031 3.14062 136.172 3.42187 136.266 3.65625C136.406 3.9375 136.547 4.26562 136.688 4.64062C136.875 5.01563 137.016 5.46094 137.109 5.97656C137.156 6.21094 137.18 6.44531 137.18 6.67969C137.227 6.91406 137.273 7.14844 137.32 7.38281C137.32 7.61719 137.344 7.875 137.391 8.15625C137.438 8.39063 137.461 8.60156 137.461 8.78906C137.414 9.21094 137.273 9.63281 137.039 10.0547C136.805 10.4766 136.594 10.8516 136.406 11.1797C136.078 11.8359 135.773 12.5156 135.492 13.2188C135.258 13.875 134.953 14.5312 134.578 15.1875C134.297 15.5625 134.156 15.7969 134.156 15.8906C134.156 15.9375 134.133 15.9844 134.086 16.0312C133.898 16.5 133.758 16.8516 133.664 17.0859C133.57 17.2734 133.477 17.4844 133.383 17.7188C133.148 18.2812 132.891 18.8672 132.609 19.4766C132.375 20.0391 132.141 20.6484 131.906 21.3047C132.141 21.2578 132.352 21.0469 132.539 20.6719C132.68 20.5781 132.797 20.4609 132.891 20.3203C133.031 20.1328 133.148 19.9453 133.242 19.7578C133.523 19.4766 133.711 19.2656 133.805 19.125C133.992 18.8906 134.133 18.6797 134.227 18.4922C134.367 18.2578 134.531 18.0469 134.719 17.8594C135.234 17.3437 135.727 16.7812 136.195 16.1719C136.711 15.5625 137.203 14.9531 137.672 14.3438C138.281 13.7812 138.82 13.125 139.289 12.375C139.758 11.5781 140.18 10.7813 140.555 9.98438C140.836 9.75 141.094 9.51563 141.328 9.28125C141.609 9.04687 141.867 8.76562 142.102 8.4375C142.852 7.82813 143.484 7.21875 144 6.60938C144.516 6 145.055 5.46094 145.617 4.99219C146.227 4.47656 146.883 4.07812 147.586 3.79688C148.289 3.51562 149.086 3.42187 149.977 3.51562C150.211 3.79688 150.422 4.10156 150.609 4.42969C150.797 4.75781 151.031 5.03906 151.312 5.27344C151.688 6.21094 151.992 7.21875 152.227 8.29688C152.508 9.32812 152.625 10.5234 152.578 11.8828C152.484 12.2578 152.32 12.6562 152.086 13.0781C151.898 13.4531 151.758 13.875 151.664 14.3438C151.57 14.5781 151.477 14.7891 151.383 14.9766C151.336 15.1641 151.266 15.375 151.172 15.6094C150.984 16.1719 150.68 16.8281 150.258 17.5781C149.883 18.2812 149.625 18.9609 149.484 19.6172C149.344 19.7578 149.25 19.9453 149.203 20.1797C149.203 20.3672 149.18 20.5781 149.133 20.8125C148.852 21.4219 148.711 21.9141 148.711 22.2891C148.711 22.6172 148.664 22.9453 148.57 23.2734C148.336 24.1172 148.125 24.9609 147.938 25.8047C147.75 26.6484 147.562 27.5156 147.375 28.4062C147.281 28.6875 147.211 28.9453 147.164 29.1797C147.117 29.4141 147.07 29.6484 147.023 29.8828C146.93 30.1641 146.836 30.4688 146.742 30.7969C146.695 31.0781 146.625 31.3594 146.531 31.6406C146.672 31.5938 146.812 31.4766 146.953 31.2891C147.094 31.0547 147.234 30.8438 147.375 30.6562C147.609 30.2812 147.844 29.9062 148.078 29.5312C148.359 29.1562 148.617 28.7812 148.852 28.4062C149.227 27.8906 149.578 27.3984 149.906 26.9297C150.234 26.4141 150.586 25.9219 150.961 25.4531C151.43 24.75 151.781 24.1875 152.016 23.7656C152.297 23.3438 152.555 22.8984 152.789 22.4297C153.164 22.0547 153.469 21.6797 153.703 21.3047C153.938 20.9297 154.219 20.5547 154.547 20.1797C154.875 19.5234 155.18 18.9609 155.461 18.4922C155.742 18.0234 155.93 17.6484 156.023 17.3672C156.445 16.8047 156.867 16.2656 157.289 15.75C157.711 15.2344 158.156 14.7188 158.625 14.2031C159.047 13.7812 159.375 13.4766 159.609 13.2891C159.891 13.0547 160.172 12.8203 160.453 12.5859C161.016 11.8828 161.719 11.1562 162.562 10.4062C163.219 9.46875 163.992 8.64844 164.883 7.94531C165.82 7.19531 166.688 6.44531 167.484 5.69531C168 5.50781 168.398 5.27344 168.68 4.99219C168.961 4.66406 169.242 4.61719 169.523 4.85156C169.992 4.47656 170.414 4.35938 170.789 4.5C171.164 4.59375 171.422 4.6875 171.562 4.78125C172.172 5.34375 172.523 5.71875 172.617 5.90625C172.711 6.04688 172.781 6.21094 172.828 6.39844C172.875 6.58594 172.945 6.75 173.039 6.89062L173.461 7.94531C173.555 8.13281 173.648 8.34375 173.742 8.57812C173.836 8.8125 173.93 9.04687 174.023 9.28125C174.211 9.65625 174.375 10.1016 174.516 10.6172C174.703 11.1328 174.773 11.6484 174.727 12.1641C174.68 12.3984 174.633 12.6562 174.586 12.9375C174.539 13.2188 174.469 13.5234 174.375 13.8516C174.234 14.2266 174.094 14.5781 173.953 14.9062C173.859 15.1875 173.766 15.4688 173.672 15.75C173.578 15.9844 173.508 16.1953 173.461 16.3828C173.461 16.5703 173.414 16.7578 173.32 16.9453C173.039 17.6953 172.664 18.5625 172.195 19.5469C171.727 20.4844 171.375 21.2578 171.141 21.8672C171.094 22.2891 170.93 22.6641 170.648 22.9922C170.555 23.4141 170.438 23.7891 170.297 24.1172C170.156 24.4453 170.016 24.7969 169.875 25.1719C169.781 25.4062 169.711 25.6406 169.664 25.875C169.664 26.0625 169.617 26.2734 169.523 26.5078C169.43 26.7422 169.312 27 169.172 27.2812C169.031 27.5156 168.914 27.75 168.82 27.9844C168.727 28.3594 168.633 28.7344 168.539 29.1094C168.445 29.4375 168.305 29.7656 168.117 30.0938C167.93 30.6094 167.742 31.1016 167.555 31.5703C167.367 32.0391 167.133 32.4609 166.852 32.8359C165.914 34.3828 165.141 36.0703 164.531 37.8984C163.922 39.6797 163.219 41.3906 162.422 43.0312C162.375 43.3125 162.281 43.5938 162.141 43.875C162 44.1562 161.883 44.4375 161.789 44.7188C161.555 45 161.367 45.375 161.227 45.8438C161.133 46.3125 161.016 46.7578 160.875 47.1797C160.734 47.6484 160.758 48.0469 160.945 48.375C161.133 48.6562 161.297 48.8438 161.438 48.9375C161.672 49.0781 162 49.125 162.422 49.0781C162.891 49.0312 163.242 48.9609 163.477 48.8672C163.758 48.7734 164.086 48.6797 164.461 48.5859C164.836 48.4922 165.164 48.3984 165.445 48.3047C165.82 48.1641 166.125 48.0234 166.359 47.8828C166.641 47.7422 166.922 47.6016 167.203 47.4609C167.438 47.2734 167.742 47.1328 168.117 47.0391C168.258 46.8984 168.398 46.8047 168.539 46.7578C168.68 46.7109 168.797 46.6406 168.891 46.5469C169.453 46.0781 169.969 45.5625 170.438 45C170.953 44.4375 171.516 43.9219 172.125 43.4531C172.922 42.1875 174 41.0859 175.359 40.1484C175.875 40.4297 176.203 40.6875 176.344 40.9219C176.531 41.1562 176.695 41.3906 176.836 41.625C176.883 42.0938 176.812 42.4688 176.625 42.75C176.438 42.9844 176.273 43.2656 176.133 43.5938C175.383 44.3438 174.656 45.1406 173.953 45.9844C173.25 46.7812 172.523 47.5312 171.773 48.2344C171.539 48.75 171.305 49.2891 171.07 49.8516C170.836 50.3672 170.484 50.7656 170.016 51.0469C169.219 51.6094 168.539 52.125 167.977 52.5938C167.414 53.0625 166.805 53.4141 166.148 53.6484C164.977 54.3516 163.758 55.1953 162.492 56.1797C162.023 56.5078 161.438 56.8125 160.734 57.0938C160.406 56.9062 160.219 56.7891 160.172 56.7422C160.125 56.7422 160.078 56.7188 160.031 56.6719C159.281 56.5781 158.719 56.2734 158.344 55.7578C158.016 55.2891 157.617 54.8438 157.148 54.4219C156.539 53.8125 156.07 52.9453 155.742 51.8203C155.555 51.2109 155.367 50.625 155.18 50.0625C155.039 49.5 155.016 48.8203 155.109 48.0234C155.156 47.5078 155.273 47.0156 155.461 46.5469C155.648 46.0781 155.836 45.6328 156.023 45.2109C156.82 43.4297 157.688 41.5781 158.625 39.6562C159.562 37.7344 160.336 35.8828 160.945 34.1016C161.086 33.8672 161.156 33.6797 161.156 33.5391C161.203 33.3516 161.25 33.1875 161.297 33.0469C161.484 32.5781 161.695 32.1094 161.93 31.6406C162.211 31.125 162.469 30.6562 162.703 30.2344C162.844 29.5781 163.031 28.9922 163.266 28.4766C163.547 27.9141 163.805 27.3281 164.039 26.7188C164.32 26.2969 164.531 25.8047 164.672 25.2422C164.812 24.6797 165.047 24.1875 165.375 23.7656C165.609 22.9688 165.891 22.0781 166.219 21.0938C166.547 20.1094 166.758 19.1719 166.852 18.2812C166.898 17.9062 166.898 17.5547 166.852 17.2266C166.805 16.8984 166.805 16.5234 166.852 16.1016C166.898 15.5391 166.969 14.9297 167.062 14.2734C167.156 13.6172 167.156 12.9375 167.062 12.2344C166.828 12.4219 166.594 12.5859 166.359 12.7266C166.125 12.8672 165.891 13.0313 165.656 13.2188C165.375 13.4531 165.07 13.6875 164.742 13.9219C164.461 14.1094 164.203 14.3203 163.969 14.5547C163.688 14.8359 163.523 15 163.477 15.0469C163.43 15.0469 163.359 15.0937 163.266 15.1875C163.031 15.6094 162.82 15.8906 162.633 16.0312C162.445 16.125 162.281 16.2656 162.141 16.4531C161.766 17.0625 161.438 17.5078 161.156 17.7891C160.922 18.0234 160.688 18.2812 160.453 18.5625C160.453 18.6562 160.383 18.8672 160.242 19.1953C160.148 19.5234 160.102 19.7344 160.102 19.8281C159.352 21.0938 158.648 22.0547 157.992 22.7109C157.477 23.5078 156.938 24.2578 156.375 24.9609C155.859 25.6641 155.367 26.4141 154.898 27.2109C154.43 27.9609 153.961 28.5469 153.492 28.9688C153.07 29.3906 152.672 29.8828 152.297 30.4453C151.828 30.9141 151.406 31.4297 151.031 31.9922C150.656 32.5547 150.211 33.0703 149.695 33.5391C149.32 34.0547 148.945 34.5703 148.57 35.0859C148.242 35.5547 147.914 36.0703 147.586 36.6328C147.492 36.8672 147.281 37.2656 146.953 37.8281C146.625 38.3906 146.414 38.7891 146.32 39.0234C146.086 39.4453 145.898 39.8906 145.758 40.3594C145.617 40.8281 145.43 41.25 145.195 41.625C144.82 42.2812 144.422 42.9141 144 43.5234C143.578 44.1328 143.18 44.7656 142.805 45.4219C142.617 45.8438 142.477 46.2422 142.383 46.6172C142.336 46.9922 142.195 47.25 141.961 47.3906C141.727 47.9531 141.445 48.4688 141.117 48.9375C140.836 49.3594 140.578 49.875 140.344 50.4844C140.203 50.8125 139.969 51.0469 139.641 51.1875C139.359 51.3281 139.078 51.3281 138.797 51.1875C138.422 51.0469 138.117 50.7656 137.883 50.3438C137.648 49.9219 137.414 49.5703 137.18 49.2891C137.086 48.9141 136.945 48.5859 136.758 48.3047C136.617 48.0234 136.547 47.6953 136.547 47.3203C136.5 47.1328 136.5 46.9219 136.547 46.6875C136.641 46.4531 136.664 46.2422 136.617 46.0547C136.477 45.4922 136.477 45.0469 136.617 44.7188C136.758 44.3438 136.875 44.0156 136.969 43.7344C137.156 43.2188 137.32 42.9141 137.461 42.8203C137.555 42.4922 137.625 42.1875 137.672 41.9062C137.766 41.625 137.859 41.3203 137.953 40.9922C138.047 40.7578 138.141 40.5469 138.234 40.3594C138.328 40.125 138.422 39.8906 138.516 39.6562C138.609 39.4219 138.68 39.2109 138.727 39.0234C138.82 38.8359 138.914 38.625 139.008 38.3906C139.055 38.2031 139.078 38.0625 139.078 37.9688C139.078 37.875 139.125 37.7344 139.219 37.5469C139.312 37.125 139.43 36.7266 139.57 36.3516C139.758 35.9297 139.945 35.4844 140.133 35.0156C140.273 34.6406 140.414 34.2656 140.555 33.8906C140.742 33.5156 140.906 33.1172 141.047 32.6953C141.234 32.2734 141.398 31.875 141.539 31.5C141.727 31.0781 141.891 30.75 142.031 30.5156C142.125 30.2812 142.242 30 142.383 29.6719C142.523 29.3438 142.664 29.0391 142.805 28.7578C143.086 28.2422 143.227 27.9375 143.227 27.8438C143.273 27.7031 143.297 27.5859 143.297 27.4922C143.109 27.1641 143.109 26.7422 143.297 26.2266C143.531 25.6641 143.766 25.1016 144 24.5391C144.234 23.9766 144.398 23.3906 144.492 22.7812C144.586 22.1719 144.727 21.5859 144.914 21.0234C145.148 20.2266 145.43 19.3125 145.758 18.2812C146.133 17.25 146.367 16.2422 146.461 15.2578C146.461 14.8828 146.484 14.5312 146.531 14.2031C146.578 13.875 146.438 13.6875 146.109 13.6406C146.016 13.4062 145.922 13.1719 145.828 12.9375C145.734 12.7031 145.594 12.5156 145.406 12.375C144.938 12.375 144.562 12.5391 144.281 12.8672C144.047 13.1484 143.789 13.4297 143.508 13.7109C142.992 14.4141 142.43 15.0469 141.82 15.6094C141.258 16.1719 140.719 16.8281 140.203 17.5781C139.688 18.0938 139.125 18.7266 138.516 19.4766C137.906 20.2266 137.414 20.8594 137.039 21.375C136.945 21.7031 136.758 21.9609 136.477 22.1484C136.195 22.3359 135.961 22.5469 135.773 22.7812C135.539 23.0625 135.258 23.3906 134.93 23.7656C134.602 24.1406 134.32 24.5156 134.086 24.8906C133.898 25.125 133.688 25.3594 133.453 25.5938C133.266 25.8281 133.055 26.0625 132.82 26.2969C132.68 26.4844 132.539 26.6953 132.398 26.9297C132.258 27.1172 132.094 27.3281 131.906 27.5625C131.484 27.9844 131.203 28.3125 131.062 28.5469C130.922 28.7812 130.734 28.9922 130.5 29.1797C130.172 29.7891 129.82 30.3984 129.445 31.0078C129.117 31.6172 128.766 32.25 128.391 32.9062C128.203 33 128.062 33.1641 127.969 33.3984C127.875 33.6328 127.758 33.8438 127.617 34.0312C127.523 34.5469 127.359 34.9688 127.125 35.2969C126.938 35.625 126.773 35.9766 126.633 36.3516C125.93 37.4297 125.344 38.4141 124.875 39.3047C124.406 40.1484 123.938 41.0391 123.469 41.9766C123.234 42.4453 123.094 42.7266 123.047 42.8203C123 42.9141 122.93 43.0078 122.836 43.1016C122.695 43.4297 122.531 43.7344 122.344 44.0156C122.203 44.2969 122.062 44.5781 121.922 44.8594C121.828 45 121.758 45.1406 121.711 45.2812C121.711 45.4219 121.641 45.5391 121.5 45.6328C120.984 47.1328 120.352 48.5391 119.602 49.8516C118.898 51.1172 118.266 52.5 117.703 54C117.609 54.0938 117.539 54.2109 117.492 54.3516C117.445 54.5391 117.375 54.7031 117.281 54.8438C116.766 55.3594 116.414 55.5703 116.227 55.4766C116.086 55.3828 115.898 55.3359 115.664 55.3359C115.477 55.3359 115.312 55.4062 115.172 55.5469C115.078 55.6875 114.867 55.7578 114.539 55.7578C114.117 55.7578 113.859 55.8047 113.766 55.8984C113.672 55.9922 113.484 56.1094 113.203 56.25C112.828 56.4844 112.57 56.625 112.43 56.6719C112.336 56.7188 112.242 56.6953 112.148 56.6016C112.102 56.7422 112.008 56.8125 111.867 56.8125C111.727 56.8125 111.609 56.9062 111.516 57.0938C111.422 56.9531 111.305 56.9062 111.164 56.9531C111.023 57 110.883 56.9531 110.742 56.8125ZM209.109 7.66406C209.344 8.88281 209.625 9.98438 209.953 10.9688C210.281 11.9531 210.492 13.0313 210.586 14.2031C210.586 14.4844 210.562 14.7656 210.516 15.0469C210.516 15.3281 210.539 15.6094 210.586 15.8906V16.7344C210.586 17.1094 210.539 17.4609 210.445 17.7891C210.398 18.1172 210.375 18.4688 210.375 18.8438C210.328 19.6875 210.188 20.5078 209.953 21.3047C209.906 21.8203 209.859 22.0781 209.812 22.0781C209.766 22.0312 209.742 22.0547 209.742 22.1484C209.648 22.6641 209.578 23.1562 209.531 23.625C209.484 24.0938 209.414 24.5859 209.32 25.1016C210.164 25.1953 211.125 25.3125 212.203 25.4531C213.328 25.5469 214.383 25.5469 215.367 25.4531C215.602 25.4062 215.812 25.3359 216 25.2422C216.234 25.1484 216.469 25.0547 216.703 24.9609C217.5 24.8672 218.133 24.6797 218.602 24.3984C219.07 24.1172 219.633 23.8828 220.289 23.6953C220.102 24.2109 219.867 24.5156 219.586 24.6094C219.445 25.0781 219.305 25.4062 219.164 25.5938C219.07 25.7344 218.953 25.8516 218.812 25.9453C218.578 26.1328 218.367 26.2969 218.18 26.4375C217.992 26.5312 217.781 26.6719 217.547 26.8594C216.797 27.2812 216.188 27.5156 215.719 27.5625C215.297 27.5625 214.898 27.6328 214.523 27.7734C214.195 27.7266 213.797 27.6797 213.328 27.6328C212.906 27.5859 212.531 27.5859 212.203 27.6328C211.969 27.4922 211.711 27.4219 211.43 27.4219C211.148 27.4219 210.867 27.4688 210.586 27.5625C210.023 27.75 209.648 27.8906 209.461 27.9844C209.273 28.0312 209.086 28.1016 208.898 28.1953C208.805 28.4766 208.734 28.6875 208.688 28.8281C208.688 28.9688 208.664 29.0859 208.617 29.1797C208.57 29.6953 208.523 30.2109 208.477 30.7266C208.477 31.1953 208.406 31.6875 208.266 32.2031C208.078 32.625 207.984 32.9062 207.984 33.0469C207.984 33.1406 207.938 33.2812 207.844 33.4688C207.703 33.7031 207.586 33.9844 207.492 34.3125C207.398 34.6406 207.305 34.9688 207.211 35.2969C206.977 35.5312 206.836 35.8125 206.789 36.1406C206.742 36.4688 206.695 36.8203 206.648 37.1953C206.602 37.5703 206.484 37.9453 206.297 38.3203C206.109 38.6484 205.922 38.9766 205.734 39.3047C205.641 39.5391 205.547 39.7734 205.453 40.0078C205.359 40.1953 205.242 40.4062 205.102 40.6406C204.539 41.3438 204 42.0938 203.484 42.8906C203.25 43.4062 202.992 43.875 202.711 44.2969C202.477 44.6719 202.242 45.0938 202.008 45.5625C201.633 46.2188 201.164 46.8047 200.602 47.3203C200.039 47.7891 199.477 48.2812 198.914 48.7969C198.633 49.0312 198.352 49.2891 198.07 49.5703C197.789 49.8516 197.531 50.1094 197.297 50.3438C197.062 50.5781 196.805 50.8359 196.523 51.1172C196.289 51.3516 196.055 51.5859 195.82 51.8203C195.492 52.0547 195.141 52.3125 194.766 52.5938C194.438 52.8281 194.086 53.0625 193.711 53.2969C192.961 53.7188 192.211 54.1172 191.461 54.4922C190.758 54.8672 190.008 55.2891 189.211 55.7578C188.836 55.9922 188.484 56.2031 188.156 56.3906C187.828 56.625 187.477 56.8125 187.102 56.9531C186.82 57.0469 186.516 57.0938 186.188 57.0938C185.906 57.1406 185.625 57.1875 185.344 57.2344C184.969 57.3281 184.617 57.3984 184.289 57.4453C183.961 57.5391 183.586 57.5859 183.164 57.5859C182.648 57.5391 182.062 57.4219 181.406 57.2344C180.797 57.0938 180.328 56.9062 180 56.6719C179.391 56.1094 179.016 55.7109 178.875 55.4766C178.781 55.2422 178.617 55.0078 178.383 54.7734C178.336 54.5859 178.266 54.4453 178.172 54.3516C178.125 54.3047 178.102 54.1875 178.102 54C177.773 53.5312 177.516 53.0625 177.328 52.5938C176.906 51.7031 176.602 50.9297 176.414 50.2734C176.273 49.5703 176.25 48.8438 176.344 48.0938C176.25 47.3438 176.203 46.5 176.203 45.5625C176.203 44.5781 176.203 43.6406 176.203 42.75C176.203 42.4219 176.18 42.1172 176.133 41.8359C176.133 41.5078 176.18 41.2266 176.273 40.9922C176.227 40.6172 176.18 40.2656 176.133 39.9375C176.133 39.5625 176.18 39.2344 176.273 38.9531C176.32 38.4844 176.344 38.1328 176.344 37.8984C176.391 37.6641 176.461 37.4297 176.555 37.1953C176.789 36.9609 176.883 36.7266 176.836 36.4922C176.836 36.2578 176.883 36.0234 176.977 35.7891C177.164 34.5234 177.469 33.3984 177.891 32.4141C178.031 32.0391 178.172 31.6875 178.312 31.3594C178.453 30.9844 178.57 30.6094 178.664 30.2344C178.945 29.4375 179.25 28.7109 179.578 28.0547C179.953 27.3984 180.305 26.6953 180.633 25.9453C181.289 24.5859 181.969 23.3438 182.672 22.2188C183.422 21.0469 184.172 19.8516 184.922 18.6328C185.156 18.4922 185.32 18.3047 185.414 18.0703C185.508 17.7891 185.648 17.5781 185.836 17.4375C186.211 16.6406 186.656 15.9609 187.172 15.3984C187.688 14.8359 188.203 14.2734 188.719 13.7109C188.953 13.5234 189.164 13.3359 189.352 13.1484C189.539 12.9141 189.75 12.6797 189.984 12.4453C190.125 12.3047 190.266 12.1875 190.406 12.0938C190.594 11.9531 190.734 11.7891 190.828 11.6016C191.016 11.5078 191.18 11.3906 191.32 11.25C191.508 11.1094 191.672 10.9688 191.812 10.8281C192 10.6875 192.188 10.5469 192.375 10.4062C192.562 10.2656 192.75 10.125 192.938 9.98438C193.312 9.70312 193.641 9.42188 193.922 9.14062C194.25 8.8125 194.602 8.53125 194.977 8.29688C195.352 8.25 195.586 8.22656 195.68 8.22656C195.773 8.22656 195.82 8.15625 195.82 8.01562C196.383 7.54688 196.734 7.21875 196.875 7.03125C197.062 6.79687 197.227 6.5625 197.367 6.32812C197.742 6.09375 198.07 5.83594 198.352 5.55469C198.633 5.22656 198.961 4.94531 199.336 4.71094C199.617 4.38281 199.805 4.17188 199.898 4.07812C200.039 3.98437 200.18 3.89063 200.32 3.79688C200.414 3.65625 200.508 3.5625 200.602 3.51562C200.742 3.42187 200.836 3.32813 200.883 3.23438C201.117 3.14062 201.328 3.04688 201.516 2.95312C201.703 2.8125 201.938 2.69531 202.219 2.60156C202.547 2.64844 202.805 2.64844 202.992 2.60156C203.227 2.55469 203.438 2.55469 203.625 2.60156C203.906 2.64844 204.117 2.76563 204.258 2.95312C204.445 3.09375 204.656 3.25781 204.891 3.44531C205.453 3.53906 205.875 3.84375 206.156 4.35938C206.484 4.82812 206.836 5.17969 207.211 5.41406C207.445 5.78906 207.703 6.16406 207.984 6.53906C208.312 6.86719 208.594 7.24219 208.828 7.66406H209.109ZM203.625 21.0938C203.859 21.4219 204.141 21.7266 204.469 22.0078C204.797 22.2422 205.125 22.4766 205.453 22.7109C205.453 21.4922 205.5 20.1797 205.594 18.7734C205.734 17.3203 205.758 15.9844 205.664 14.7656C205.523 14.25 205.359 13.7578 205.172 13.2891C205.031 12.8203 204.914 12.3047 204.82 11.7422C204.633 11.5547 204.492 11.3672 204.398 11.1797C204.352 10.9922 204.281 10.8047 204.188 10.6172C203.953 10.3359 203.836 10.1719 203.836 10.125C203.836 10.0312 203.789 9.9375 203.695 9.84375C203.602 9.75 203.484 9.65625 203.344 9.5625C203.25 9.46875 203.156 9.35156 203.062 9.21094C202.5 9.16406 202.031 9.28125 201.656 9.5625C201.328 9.79688 201 10.0312 200.672 10.2656C200.578 10.9219 200.555 11.5312 200.602 12.0938C200.648 12.6562 200.719 13.1953 200.812 13.7109C200.953 14.6016 201.094 15.4922 201.234 16.3828C201.375 17.2734 201.609 18.0469 201.938 18.7031C201.984 19.0312 202.172 19.4297 202.5 19.8984C202.828 20.3203 203.203 20.7188 203.625 21.0938ZM194.203 14.9766C193.969 15.2109 193.734 15.4219 193.5 15.6094C193.266 15.7969 193.055 16.0312 192.867 16.3125C192.586 16.5469 192.352 16.7812 192.164 17.0156C191.977 17.25 191.766 17.4844 191.531 17.7188C191.297 17.9531 191.086 18.1875 190.898 18.4219C190.711 18.6094 190.523 18.8438 190.336 19.125C190.195 19.2188 190.078 19.3359 189.984 19.4766C189.891 19.6172 189.773 19.7578 189.633 19.8984C189.164 20.5078 188.836 20.9297 188.648 21.1641C188.461 21.3984 188.32 21.6328 188.227 21.8672C187.945 22.0547 187.711 22.3125 187.523 22.6406C187.383 22.9219 187.242 23.2266 187.102 23.5547C186.82 23.9297 186.562 24.3281 186.328 24.75C186.094 25.1719 185.883 25.5938 185.695 26.0156C185.32 26.6719 185.086 27.1172 184.992 27.3516C184.945 27.5859 184.875 27.8203 184.781 28.0547C184.594 28.3359 184.43 28.7109 184.289 29.1797C183.492 30.8672 182.789 32.7891 182.18 34.9453C182.086 35.3672 181.945 35.7656 181.758 36.1406C181.617 36.5156 181.523 36.8906 181.477 37.2656C181.43 37.4531 181.406 37.6406 181.406 37.8281C181.453 38.0156 181.477 38.2031 181.477 38.3906C181.43 38.8594 181.383 39.3281 181.336 39.7969C181.289 40.2188 181.266 40.6875 181.266 41.2031C181.266 42.1406 181.266 43.0078 181.266 43.8047C181.266 44.6016 181.312 45.4219 181.406 46.2656C181.406 46.875 181.453 47.3672 181.547 47.7422C181.641 47.9297 181.805 48.1172 182.039 48.3047C182.273 48.4922 182.484 48.6562 182.672 48.7969C183.047 49.1719 183.422 49.5703 183.797 49.9922C184.172 50.3672 184.688 50.4375 185.344 50.2031C185.578 50.3438 185.836 50.3438 186.117 50.2031C186.398 50.0625 186.68 50.0391 186.961 50.1328C187.195 50.0391 187.43 49.9922 187.664 49.9922C187.898 49.9453 188.133 49.875 188.367 49.7812C188.742 49.6875 189.094 49.5938 189.422 49.5C189.797 49.3594 190.148 49.2422 190.477 49.1484C190.852 49.0078 191.227 48.8906 191.602 48.7969C191.977 48.6562 192.328 48.4922 192.656 48.3047C193.594 47.5078 194.273 46.875 194.695 46.4062C195.023 46.0781 195.352 45.7969 195.68 45.5625C196.008 45.2812 196.312 45 196.594 44.7188C196.828 44.4844 197.062 44.25 197.297 44.0156C197.531 43.7344 197.742 43.4062 197.93 43.0312C198.07 42.8906 198.188 42.75 198.281 42.6094C198.422 42.4219 198.539 42.2344 198.633 42.0469C198.867 41.7656 199.031 41.4609 199.125 41.1328C199.266 40.8047 199.453 40.4766 199.688 40.1484C199.969 39.3516 200.297 38.6016 200.672 37.8984C201.047 37.1953 201.352 36.4688 201.586 35.7188C202.008 34.8281 202.359 34.0547 202.641 33.3984C202.969 32.6953 203.203 31.9922 203.344 31.2891C203.484 31.1484 203.555 30.9844 203.555 30.7969C203.602 30.5625 203.672 30.375 203.766 30.2344C204 29.5781 204.188 28.9453 204.328 28.3359C204.516 27.7266 204.703 27.0469 204.891 26.2969C204.703 26.2031 204.539 26.1797 204.398 26.2266C204.258 26.2266 204.117 26.1797 203.977 26.0859C203.602 25.9453 203.25 25.7109 202.922 25.3828C202.641 25.0078 202.312 24.7969 201.938 24.75C201.75 24.6094 201.586 24.4922 201.445 24.3984C201.352 24.3047 201.211 24.2109 201.023 24.1172C200.273 23.3203 199.547 22.5 198.844 21.6562C198.188 20.7656 197.648 19.7812 197.227 18.7031C196.805 17.7656 196.477 16.8984 196.242 16.1016C196.008 15.2578 195.797 14.3672 195.609 13.4297C195.328 13.7109 195.07 13.9687 194.836 14.2031C194.648 14.4375 194.438 14.6953 194.203 14.9766ZM254.461 2.39062C254.508 2.625 254.602 2.83594 254.742 3.02344C254.883 3.16406 255.023 3.28125 255.164 3.375C255.211 3.75 255.234 4.14844 255.234 4.57031C255.281 4.94531 255.352 5.32031 255.445 5.69531C255.445 5.88281 255.445 6.09375 255.445 6.32812C255.445 6.51562 255.516 6.67969 255.656 6.82031C255.516 8.46094 255.281 9.82031 254.953 10.8984C254.672 11.9297 254.414 13.0781 254.18 14.3438C254.133 14.5781 254.062 14.8125 253.969 15.0469C253.922 15.2344 253.898 15.4453 253.898 15.6797C253.852 15.8672 253.828 16.0312 253.828 16.1719C253.875 16.3125 253.875 16.4766 253.828 16.6641C253.734 16.9453 253.594 17.25 253.406 17.5781C253.219 17.9062 253.031 18.2578 252.844 18.6328C252.094 19.9922 251.25 21.2812 250.312 22.5C249.422 23.7188 248.297 24.6562 246.938 25.3125C246.422 25.5469 245.977 25.7812 245.602 26.0156C245.273 26.2031 244.852 26.3438 244.336 26.4375C244.008 26.625 243.609 26.8359 243.141 27.0703C242.719 27.2578 242.297 27.3984 241.875 27.4922C241.688 27.5859 241.5 27.6328 241.312 27.6328C241.125 27.6328 240.938 27.6562 240.75 27.7031C240.516 27.7969 240.305 27.8906 240.117 27.9844C239.977 28.0312 239.836 28.0781 239.695 28.125C239.32 28.2188 239.039 28.2656 238.852 28.2656C238.523 28.2188 238.289 28.0312 238.148 27.7031C238.008 27.3281 237.938 26.9531 237.938 26.5781C237.75 26.3906 237.539 26.2266 237.305 26.0859C237.07 25.9453 236.906 25.6875 236.812 25.3125C236.672 24.7969 236.578 24.5156 236.531 24.4688C236.484 24.4219 236.438 24.3516 236.391 24.2578C236.156 23.6016 236.062 22.875 236.109 22.0781C236.203 21.2344 236.391 20.5547 236.672 20.0391C236.766 19.8047 236.906 19.6406 237.094 19.5469C237.281 19.4062 237.398 19.2188 237.445 18.9844C237.82 18.75 238.148 18.5156 238.43 18.2812C238.711 18 239.039 17.7422 239.414 17.5078C239.883 16.7109 240.422 16.1016 241.031 15.6797C241.641 15.2578 242.227 14.8125 242.789 14.3438C242.977 14.2031 243.117 14.0391 243.211 13.8516C243.352 13.6641 243.539 13.4766 243.773 13.2891C243.914 13.1484 244.078 13.0313 244.266 12.9375C244.453 12.7969 244.617 12.6797 244.758 12.5859C244.852 12.4922 244.945 12.3984 245.039 12.3047C245.133 12.2109 245.227 12.1172 245.32 12.0234C245.508 11.9297 245.695 11.8828 245.883 11.8828C246.07 11.8828 246.258 11.8359 246.445 11.7422C247.102 11.6484 247.43 11.6953 247.43 11.8828C247.43 12.0234 247.43 12.1875 247.43 12.375C247.195 12.5156 246.914 12.6562 246.586 12.7969C246.258 12.8906 245.93 12.9844 245.602 13.0781C245.508 13.4531 245.297 13.7344 244.969 13.9219C244.688 14.1094 244.43 14.3672 244.195 14.6953C244.008 14.9297 243.844 15.1641 243.703 15.3984C243.609 15.5859 243.398 15.7266 243.07 15.8203C242.836 16.3828 242.531 16.875 242.156 17.2969C241.828 17.6719 241.5 18.0703 241.172 18.4922C241.172 19.0078 241.055 19.4531 240.82 19.8281C240.633 20.1562 240.422 20.5078 240.188 20.8828C240.094 21.0703 240 21.2578 239.906 21.4453C239.812 21.6328 239.766 21.7734 239.766 21.8672C239.812 21.9609 239.859 22.1016 239.906 22.2891C240 22.4297 240.094 22.5703 240.188 22.7109C240.281 22.8516 240.375 22.9688 240.469 23.0625C240.609 23.1562 240.703 23.2734 240.75 23.4141C241.875 22.7109 242.977 22.0078 244.055 21.3047C245.18 20.6016 246.141 19.7578 246.938 18.7734C247.172 18.3516 247.383 17.9531 247.57 17.5781C247.805 17.1562 248.039 16.7109 248.273 16.2422C248.367 15.7734 248.508 15.3281 248.695 14.9062C248.883 14.4844 249.094 14.0625 249.328 13.6406C249.562 13.1719 249.773 12.7031 249.961 12.2344C250.148 11.7656 250.266 11.2734 250.312 10.7578C250.359 10.3828 250.359 9.98438 250.312 9.5625C250.312 9.09375 250.383 8.74219 250.523 8.50781C250.43 8.27344 250.43 7.96875 250.523 7.59375C250.617 7.17188 250.641 6.77344 250.594 6.39844C250.266 5.69531 249.938 5.29688 249.609 5.20312C249.281 5.0625 248.93 4.94531 248.555 4.85156C248.18 5.08594 247.781 5.34375 247.359 5.625C246.938 5.90625 246.539 6.21094 246.164 6.53906C245.883 6.82031 245.578 7.10156 245.25 7.38281C244.969 7.66406 244.734 7.99219 244.547 8.36719C243.938 9.02344 243.445 9.60937 243.07 10.125C242.695 10.5937 242.32 11.0859 241.945 11.6016C241.148 12.1172 240.422 12.6797 239.766 13.2891C239.109 13.8984 238.383 14.4609 237.586 14.9766C236.977 15.4453 236.367 15.9375 235.758 16.4531C235.195 16.9219 234.656 17.4141 234.141 17.9297C233.672 18.4453 233.18 18.9375 232.664 19.4062C232.148 19.8281 231.68 20.2969 231.258 20.8125C230.883 21.3281 230.484 21.8672 230.062 22.4297C229.641 22.9453 229.219 23.4609 228.797 23.9766C228.562 24.2109 228.352 24.4688 228.164 24.75C227.977 25.0312 227.766 25.3125 227.531 25.5938C227.297 25.8281 227.062 26.0859 226.828 26.3672C226.641 26.6484 226.453 26.9062 226.266 27.1406C226.125 27.375 226.008 27.6328 225.914 27.9141C225.82 28.1484 225.703 28.3828 225.562 28.6172C225.094 29.1797 224.625 29.7656 224.156 30.375C223.734 30.9375 223.359 31.5938 223.031 32.3438C222.469 33.0938 222.023 33.8438 221.695 34.5938C221.414 35.2969 221.086 36 220.711 36.7031C220.617 37.3594 220.43 37.9453 220.148 38.4609C219.914 38.9766 219.75 39.5625 219.656 40.2188C219.609 40.5469 219.516 40.875 219.375 41.2031C219.281 41.4844 219.211 41.8125 219.164 42.1875C219.07 42.5156 219.023 42.8672 219.023 43.2422C219.023 43.5703 218.977 43.875 218.883 44.1562C218.602 44.7656 218.461 45.2109 218.461 45.4922C218.461 45.7266 218.344 45.9141 218.109 46.0547C218.25 46.4297 218.367 46.7578 218.461 47.0391C218.602 47.3203 218.789 47.6016 219.023 47.8828C219.117 48.0703 219.258 48.2344 219.445 48.375C219.633 48.5156 219.773 48.6797 219.867 48.8672C220.055 49.3359 220.195 49.6172 220.289 49.7109C220.43 49.8047 220.594 49.9219 220.781 50.0625C220.922 50.1562 221.086 50.2734 221.273 50.4141C221.508 50.5547 221.719 50.6484 221.906 50.6953C222.141 50.7891 222.375 50.8359 222.609 50.8359C222.891 50.7891 223.148 50.7891 223.383 50.8359C223.617 50.8359 223.828 50.8594 224.016 50.9062C224.203 50.9062 224.414 50.8828 224.648 50.8359C225.023 50.7422 225.469 50.6484 225.984 50.5547C226.5 50.4141 226.969 50.2969 227.391 50.2031C228.047 50.0156 228.68 49.8281 229.289 49.6406C229.945 49.4531 230.555 49.2422 231.117 49.0078C231.727 48.7734 232.219 48.4453 232.594 48.0234C232.969 47.6016 233.391 47.2734 233.859 47.0391C234.609 46.4766 235.125 46.0312 235.406 45.7031C235.734 45.3281 236.086 45.0234 236.461 44.7891C236.789 44.3672 236.977 44.1562 237.023 44.1562C237.07 44.1562 237.117 44.1328 237.164 44.0859C237.492 43.7109 237.797 43.3828 238.078 43.1016C238.406 42.7734 238.734 42.4219 239.062 42.0469C239.578 41.8125 240 41.5078 240.328 41.1328C240.703 40.9922 241.008 40.8047 241.242 40.5703C241.523 40.3359 241.805 40.1016 242.086 39.8672C242.461 39.5859 242.719 39.375 242.859 39.2344C243.047 39.0469 243.211 38.8594 243.352 38.6719C243.539 38.4844 243.727 38.2734 243.914 38.0391C244.008 37.9453 244.148 37.8516 244.336 37.7578C244.523 37.6172 244.711 37.4297 244.898 37.1953C244.992 37.0547 245.086 36.8672 245.18 36.6328C245.273 36.3984 245.438 36.2812 245.672 36.2812C245.953 36.2344 246.258 36.375 246.586 36.7031C246.914 36.9844 247.078 37.2891 247.078 37.6172C246.656 38.2734 246.422 38.6719 246.375 38.8125C246.047 39.2812 245.695 39.7266 245.32 40.1484C244.945 40.5703 244.57 41.0391 244.195 41.5547C243.82 41.9766 243.445 42.4219 243.07 42.8906C242.695 43.3125 242.344 43.7812 242.016 44.2969C241.688 44.8125 241.312 45.2812 240.891 45.7031C240.516 46.0781 240.117 46.5 239.695 46.9688C239.086 47.625 238.477 48.2344 237.867 48.7969C237.305 49.3594 236.766 50.0391 236.25 50.8359C236.016 51.0703 235.781 51.3047 235.547 51.5391C235.312 51.7266 235.078 51.9375 234.844 52.1719C234.609 52.3125 234.375 52.4766 234.141 52.6641C233.953 52.8047 233.742 52.9453 233.508 53.0859C232.57 53.4141 231.609 53.8359 230.625 54.3516C229.688 54.9141 228.633 55.3594 227.461 55.6875C226.945 55.8281 226.406 55.9922 225.844 56.1797C225.328 56.3672 224.742 56.4375 224.086 56.3906C223.992 56.3438 223.875 56.3203 223.734 56.3203C223.594 56.3203 223.453 56.2969 223.312 56.25C223.031 56.2031 222.727 56.1094 222.398 55.9688C222.117 55.8281 221.789 55.7344 221.414 55.6875C221.18 55.6875 220.969 55.7109 220.781 55.7578C220.594 55.8516 220.383 55.8984 220.148 55.8984C219.117 55.2422 218.273 54.6797 217.617 54.2109C217.008 53.7891 216.445 53.2734 215.93 52.6641C215.555 52.0547 215.297 51.6797 215.156 51.5391C215.016 51.3516 214.852 51.1406 214.664 50.9062C214.477 50.625 214.289 50.3438 214.102 50.0625C213.914 49.7344 213.727 49.3828 213.539 49.0078C213.539 48.8203 213.469 48.6562 213.328 48.5156C213.234 48.375 213.141 48.2109 213.047 48.0234C212.812 47.2266 212.695 46.4062 212.695 45.5625C212.695 44.6719 212.719 43.8047 212.766 42.9609C212.812 42.7266 212.812 42.5156 212.766 42.3281C212.719 42.0938 212.695 41.8594 212.695 41.625C212.695 41.25 212.766 40.8516 212.906 40.4297C213.047 40.0078 213.164 39.6094 213.258 39.2344C213.539 38.2031 213.844 37.2422 214.172 36.3516C214.547 35.4141 214.969 34.5469 215.438 33.75C215.859 33.1875 216.164 32.6484 216.352 32.1328C216.586 31.6172 216.82 31.0781 217.055 30.5156C217.289 30 217.523 29.5078 217.758 29.0391C217.992 28.5234 218.25 28.0078 218.531 27.4922C218.766 27.0234 219 26.5547 219.234 26.0859C219.516 25.6172 219.867 25.1953 220.289 24.8203C220.43 24.3047 220.641 23.8828 220.922 23.5547C221.203 23.1797 221.484 22.8047 221.766 22.4297C222.234 21.7734 222.703 21.1641 223.172 20.6016C223.688 20.0391 224.133 19.4062 224.508 18.7031C224.883 18.4219 225.211 18.1172 225.492 17.7891C225.82 17.4609 226.125 17.1328 226.406 16.8047C226.734 16.4297 227.039 16.1016 227.32 15.8203C227.648 15.4922 227.977 15.1406 228.305 14.7656C228.492 14.625 228.656 14.4844 228.797 14.3438C228.984 14.1563 229.148 13.9922 229.289 13.8516C229.617 13.4766 229.945 13.1484 230.273 12.8672C230.602 12.5859 230.953 12.3047 231.328 12.0234C231.75 11.8359 232.148 11.5781 232.523 11.25C232.945 10.8281 233.344 10.4062 233.719 9.98438C234.141 9.51563 234.562 9.09375 234.984 8.71875C235.641 8.0625 236.32 7.42969 237.023 6.82031C237.727 6.16406 238.477 5.57813 239.273 5.0625C239.742 4.54687 240.305 4.125 240.961 3.79688C241.617 3.42187 242.273 3.07031 242.93 2.74219C243.305 2.60156 243.609 2.48438 243.844 2.39062C244.125 2.25 244.43 2.08594 244.758 1.89844C245.273 1.57031 245.648 1.40625 245.883 1.40625C246.117 1.35938 246.305 1.24219 246.445 1.05469C247.008 1.05469 247.5 0.984375 247.922 0.84375C248.344 0.65625 248.812 0.632812 249.328 0.773438C249.516 0.820312 249.68 0.890625 249.82 0.984375C249.961 1.03125 250.102 1.07813 250.242 1.125C251.133 1.21875 251.766 1.35938 252.141 1.54688C252.516 1.73437 252.867 1.92188 253.195 2.10938C253.57 2.25 253.992 2.34375 254.461 2.39062Z" fill="black"/>
</svg>
